<?xml version="1.0" encoding="iso-8859-1"?>
<!-- Generator: Adobe Illustrator 19.0.0, SVG Export Plug-In . SVG Version: 6.00 Build 0)  -->
<svg version="1.1" id="Capa_1" xmlns="http://www.w3.org/2000/svg" xmlns:xlink="http://www.w3.org/1999/xlink" x="0px" y="0px"
	 viewBox="0 0 512.002 512.002" style="enable-background:new 0 0 512.002 512.002;" xml:space="preserve">
<g>
	<path style="fill:#AE5F3D;" d="M465.003,10.002H47c-20.35,0-37,16.65-37,37s16.65,37,37,37h239.662h178.341
		c20.35,0,36.999-16.65,36.999-37C502.002,26.652,485.353,10.002,465.003,10.002z"/>
	<path style="fill:#FF8346;" d="M286.662,128.221H177.979c-14.625,0-26.592,12.014-26.592,26.697
		c0,14.686,11.967,26.699,26.592,26.699h160.779c14.625,0,26.592-12.014,26.592-26.699c0-14.684-11.967-26.697-26.592-26.697
		H286.662z"/>
	<path style="fill:#FFBA4C;" d="M177.979,181.617h-39.27c-14.625,0-26.591,12.014-26.591,26.699
		c0,14.684,11.966,26.699,26.591,26.699h115.156c15.35-10.609,33.943-16.824,53.986-16.824s38.637,6.215,53.986,16.824h16.19
		c14.625,0,26.591-12.016,26.591-26.699c0-14.686-11.966-26.699-26.591-26.699h-39.27H177.979z"/>
	<g>
		<path style="fill:#FF8346;" d="M138.709,235.016h-38.51c-14.626,0-26.592,12.014-26.592,26.697
			c0,14.685,11.966,26.699,26.592,26.699h37.87h77.872c6.039-21.98,19.687-40.793,37.924-53.396L138.709,235.016L138.709,235.016z"
			/>
		<path style="fill:#FF8346;" d="M416.538,235.016h-38.511h-16.19c18.235,12.604,31.886,31.414,37.924,53.396h16.776
			c14.625,0,26.591-12.014,26.591-26.699C443.129,247.029,431.163,235.016,416.538,235.016z"/>
	</g>
	<path style="fill:#838383;" d="M253.865,235.016c-18.237,12.604-31.885,31.416-37.924,53.396
		c-2.229,8.121-3.427,16.67-3.427,25.504c0,9.703,1.443,19.068,4.117,27.895c6.778,22.377,21.502,41.277,40.869,53.396
		c14.612,9.145,31.865,14.432,50.351,14.432c18.485,0,35.738-5.287,50.351-14.432c19.367-12.119,34.091-31.019,40.869-53.396
		c2.675-8.826,4.117-18.191,4.117-27.895c0-8.834-1.197-17.383-3.427-25.504c-6.038-21.982-19.689-40.793-37.924-53.396
		c-15.35-10.609-33.943-16.824-53.986-16.824S269.215,224.406,253.865,235.016z"/>
	<path style="fill:#FFBA4C;" d="M399.762,288.412c2.229,8.121,3.427,16.67,3.427,25.504c0,9.703-1.442,19.068-4.117,27.895h2.223
		h31.909c14.625,0,26.591-12.016,26.591-26.699c0-14.684-11.966-26.699-26.591-26.699h-16.665L399.762,288.412L399.762,288.412z"/>
	<path style="fill:#FF8346;" d="M399.071,341.811c-6.778,22.377-21.502,41.277-40.869,53.396h16.169h26.923
		c14.626,0,26.591-12.014,26.591-26.699c0-14.684-11.965-26.697-26.591-26.697H399.071z"/>
	<path style="fill:#FFBA4C;" d="M307.852,409.639c-18.485,0-35.738-5.287-50.351-14.432h-117.13
		c-14.625,0-26.592,12.016-26.592,26.699c0,14.684,11.967,26.699,26.592,26.699h36.609h160.78h36.61
		c14.625,0,26.591-12.016,26.591-26.699c0-14.684-11.966-26.699-26.591-26.699h-16.169
		C343.59,404.352,326.337,409.639,307.852,409.639z"/>
	<g>
		<path style="fill:#FF8346;" d="M337.761,448.606H176.98c-14.625,0-26.591,12.014-26.591,26.699
			c0,14.684,11.966,26.697,26.591,26.697h160.78c14.625,0,26.591-12.014,26.591-26.697
			C364.352,460.619,352.386,448.606,337.761,448.606z"/>
		<path style="fill:#FF8346;" d="M216.632,341.811H119.43c-14.625,0-26.59,12.014-26.59,26.697c0,14.686,11.965,26.699,26.59,26.699
			h20.941h117.13C238.134,383.088,223.41,364.188,216.632,341.811z"/>
	</g>
	<path style="fill:#FFBA4C;" d="M138.069,288.412h-37.87H87.521c-14.625,0-26.591,12.016-26.591,26.699
		c0,14.684,11.966,26.699,26.591,26.699h31.908h97.202c-2.674-8.826-4.117-18.191-4.117-27.895c0-8.834,1.197-17.383,3.427-25.504
		L138.069,288.412L138.069,288.412z"/>
</g>
<path d="M465.003,94.002c25.915,0,46.999-21.084,46.999-47s-21.084-47-46.999-47H47c-25.916,0-47,21.084-47,47s21.084,47,47,47
	h229.662v24.219h-98.684c-20.177,0-36.592,16.462-36.592,36.697c0,6.013,1.458,11.686,4.024,16.699h-6.702
	c-20.176,0-36.591,16.463-36.591,36.699c0,6.013,1.458,11.686,4.024,16.699h-5.943c-20.177,0-36.592,16.462-36.592,36.697
	c0,7.829,2.465,15.088,6.646,21.053c-11.491,6.196-19.323,18.369-19.323,32.346c0,20.018,16.065,36.332,35.941,36.683
	c-2.571,5.017-4.032,10.695-4.032,16.714c0,16.486,10.896,30.466,25.844,35.081c-3.113,5.395-4.904,11.648-4.904,18.317
	c0,20.236,16.415,36.699,36.592,36.699h4.042c-2.565,5.013-4.023,10.685-4.023,16.697c0,20.236,16.415,36.699,36.591,36.699h160.78
	c20.176,0,36.591-16.463,36.591-36.699c0-6.012-1.458-11.684-4.023-16.697h4.043c20.176,0,36.591-16.463,36.591-36.699
	c0-6.175-1.535-11.994-4.233-17.106c17.607-2.642,31.155-17.908,31.155-36.292c0-6.018-1.461-11.697-4.032-16.714
	c19.876-0.35,35.941-16.665,35.941-36.683c0-15.17-9.224-28.218-22.342-33.802c3.589-5.675,5.677-12.394,5.677-19.597
	c0-20.235-16.415-36.697-36.591-36.697h-5.944c2.566-5.014,4.024-10.686,4.024-16.699c0-20.236-16.415-36.699-36.591-36.699h-6.702
	c2.566-5.014,4.025-10.687,4.025-16.699c0-20.235-16.415-36.697-36.592-36.697h-42.096V94.002H465.003z M100.199,245.016h38.51
	h89.257c-8.412,9.82-14.987,21.144-19.344,33.396H100.199c-9.149,0-16.592-7.491-16.592-16.699
	C83.607,252.506,91.051,245.016,100.199,245.016z M356.152,243.242c16.58,11.458,28.641,28.438,33.964,47.81
	c0.001,0.003,0.001,0.005,0.002,0.008c2.037,7.42,3.07,15.11,3.07,22.856c0,8.512-1.24,16.921-3.688,24.994
	c-0.001,0.001-0.001,0.002-0.001,0.004c-6.004,19.82-19.004,36.801-36.603,47.816c-13.494,8.444-29.071,12.908-45.046,12.908
	c-15.972,0-31.545-4.462-45.038-12.903c-0.002-0.002-0.005-0.003-0.007-0.005c-17.49-10.946-30.43-27.788-36.483-47.45
	c-0.085-0.327-0.183-0.649-0.299-0.963c-2.329-7.896-3.51-16.102-3.51-24.401c0-7.746,1.033-15.436,3.07-22.856
	c0.001-0.002,0.001-0.003,0.001-0.005c5.325-19.376,17.387-36.355,33.965-47.813c14.245-9.847,30.947-15.051,48.301-15.051
	C325.205,228.191,341.907,233.396,356.152,243.242z M70.931,315.111c0-9.208,7.442-16.699,16.591-16.699h116.124
	c-0.752,5.12-1.131,10.303-1.131,15.504c0,6.021,0.506,12.004,1.509,17.895H87.521C78.373,331.811,70.931,324.319,70.931,315.111z
	 M102.84,368.508c0-9.207,7.442-16.697,16.59-16.697h90.072c4.73,12.368,11.718,23.687,20.561,33.396H119.43
	C110.282,385.207,102.84,377.716,102.84,368.508z M354.352,475.303c0,9.208-7.442,16.699-16.591,16.699H176.98
	c-9.148,0-16.591-7.491-16.591-16.699c0-9.207,7.442-16.697,16.591-16.697h160.78C346.909,458.606,354.352,466.096,354.352,475.303z
	 M374.371,438.606h-234c-9.148,0-16.592-7.491-16.592-16.699s7.443-16.699,16.592-16.699h114.358
	c16.082,9.444,34.381,14.432,53.123,14.432c18.742,0,37.041-4.987,53.123-14.432h13.396c9.148,0,16.591,7.491,16.591,16.699
	C390.962,431.114,383.52,438.606,374.371,438.606z M401.294,385.207h-15.653c8.684-9.535,15.587-20.617,20.313-32.726
	c6.888,2.031,11.932,8.448,11.932,16.027C417.885,377.716,410.442,385.207,401.294,385.207z M433.203,331.811h-21.522
	c1.002-5.89,1.508-11.873,1.508-17.895c0-5.201-0.379-10.384-1.131-15.504h21.145c9.148,0,16.591,7.491,16.591,16.699
	C449.794,324.319,442.352,331.811,433.203,331.811z M433.129,261.713c0,9.208-7.442,16.699-16.591,16.699h-9.456
	c-4.355-12.253-10.932-23.575-19.345-33.396h28.801C425.687,245.016,433.129,252.506,433.129,261.713z M394.618,208.316
	c0,9.208-7.442,16.699-16.591,16.699h-13.154c-17.009-11.018-36.653-16.824-57.022-16.824s-40.013,5.807-57.021,16.824H138.709
	c-9.148,0-16.591-7.491-16.591-16.699c0-9.208,7.442-16.699,16.591-16.699h239.318C387.176,191.617,394.618,199.107,394.618,208.316
	z M355.35,154.918c0,9.208-7.443,16.699-16.592,16.699H177.979c-9.149,0-16.592-7.491-16.592-16.699
	c0-9.207,7.443-16.697,16.592-16.697h160.779C347.906,138.221,355.35,145.711,355.35,154.918z M21.928,57.002h54.025
	c5.522,0,10-4.478,10-10s-4.478-10-10-10H21.928c3.983-9.95,13.717-17,25.072-17h418.003c14.888,0,26.999,12.112,26.999,27
	s-12.111,27-26.999,27H47C35.645,74.002,25.911,66.952,21.928,57.002z"/>
<path d="M106,37.002h-0.324c-5.522,0-10,4.478-10,10s4.478,10,10,10H106c5.522,0,10-4.478,10-10S111.522,37.002,106,37.002z"/>
<g>
</g>
<g>
</g>
<g>
</g>
<g>
</g>
<g>
</g>
<g>
</g>
<g>
</g>
<g>
</g>
<g>
</g>
<g>
</g>
<g>
</g>
<g>
</g>
<g>
</g>
<g>
</g>
<g>
</g>
</svg>
