<?xml version="1.0" encoding="iso-8859-1"?>
<!-- Generator: Adobe Illustrator 19.0.0, SVG Export Plug-In . SVG Version: 6.00 Build 0)  -->
<svg version="1.1" id="Capa_1" xmlns="http://www.w3.org/2000/svg" xmlns:xlink="http://www.w3.org/1999/xlink" x="0px" y="0px"
	 viewBox="0 0 512.002 512.002" style="enable-background:new 0 0 512.002 512.002;" xml:space="preserve">
<g>
	<path style="fill:#E0AC91;" d="M266.971,101.419c0.025-69.126,79.603-76.783,91.495-56.426l-3.686-13.597l12.5-21.403
		c-47.888,27.326-174.673,27.326-222.56,0l12.502,21.403l-3.686,13.597c11.891-20.357,91.468-12.7,91.495,56.426
		c3.572-0.567,7.236-0.861,10.969-0.861C259.733,100.558,263.399,100.852,266.971,101.419z"/>
	<path style="fill:#AE5F3D;" d="M324.659,167.635c-0.397-33.482-25.27-61.069-57.689-66.216c-3.572-0.567-7.236-0.861-10.969-0.861
		c-3.733,0-7.396,0.294-10.969,0.861c-32.419,5.146-57.294,32.734-57.69,66.216c18.414-15.729,42.413-25.244,68.659-25.244
		C282.247,142.39,306.246,151.904,324.659,167.635z"/>
	<path style="fill:#E0AC91;" d="M324.659,167.635c-18.412-15.729-42.411-25.244-68.657-25.244c-26.246,0-50.245,9.515-68.659,25.244
		c-18.531,15.831-31.404,37.96-35.22,63.02h72.302c0,17.238,14.137,31.214,31.577,31.214c17.438,0,31.576-13.975,31.576-31.213
		h72.302C356.066,205.594,343.191,183.466,324.659,167.635z"/>
	<path style="fill:#AE5F3D;" d="M359.88,230.654h-72.302c0,17.238-14.139,31.214-31.576,31.214
		c-17.439,0-31.577-13.975-31.577-31.213h-72.302h-16.154v65.28v87.411c0,65.26,54.015,118.654,120.033,118.654
		s120.033-53.397,120.033-118.654v-87.411v-65.28H359.88z"/>
</g>
<path d="M256.001,347.544c-5.523,0-10,4.478-10,10v0.324c0,5.522,4.477,10,10,10c5.522,0,10-4.478,10-10v-0.324
	C266.002,352.022,261.524,347.544,256.001,347.544z"/>
<path d="M407.455,313.294c4.645,3.986,6.502,9.899,8.65,16.746c4.848,15.447,11.488,36.605,54.899,36.605c5.523,0,10-4.478,10-10
	c0-5.522-4.477-10-10-10c-28.725,0-31.395-8.504-35.817-22.594c-4.668-14.872-10.936-34.825-49.153-37.75v-46.013
	c38.218-2.925,44.485-22.877,49.153-37.75c4.422-14.09,7.092-22.594,35.817-22.594c5.523,0,10-4.478,10-10s-4.477-10-10-10
	c-43.411,0-50.052,21.156-54.899,36.605c-2.148,6.847-4.006,12.76-8.65,16.746c-5.691,4.883-16.262,7.359-31.421,7.359h-7.924
	c-5.123-22.023-16.832-42.137-33.649-57.663c-1.316-18.936-9.447-36.546-23.201-49.984c-9.596-9.374-21.213-16.001-33.858-19.522
	c3.541-32.759,28.656-43.208,39.921-46.254c17.248-4.667,30.521-0.592,32.508,2.807c0.016,0.026,0.033,0.05,0.049,0.075
	c0.142,0.24,0.295,0.472,0.455,0.697c0.051,0.07,0.104,0.14,0.156,0.209c0.135,0.177,0.273,0.349,0.418,0.516
	c0.068,0.079,0.137,0.159,0.207,0.236c0.139,0.15,0.283,0.293,0.432,0.434c0.076,0.074,0.15,0.151,0.229,0.223
	c0.215,0.191,0.434,0.375,0.662,0.547c0.086,0.065,0.178,0.122,0.266,0.185c0.156,0.109,0.313,0.219,0.475,0.319
	c0.107,0.066,0.217,0.127,0.326,0.189c0.154,0.089,0.31,0.174,0.469,0.254c0.105,0.053,0.211,0.104,0.318,0.152
	c0.18,0.083,0.361,0.158,0.545,0.23c0.09,0.035,0.178,0.071,0.27,0.104c0.236,0.085,0.477,0.159,0.719,0.227
	c0.043,0.011,0.082,0.025,0.125,0.036c0.59,0.154,1.197,0.253,1.816,0.297c0.07,0.005,0.143,0.005,0.215,0.009
	c0.158,0.008,0.318,0.019,0.478,0.019c0.045,0,0.092-0.009,0.137-0.009c0.793-0.01,1.586-0.116,2.369-0.319
	c0.039-0.01,0.076-0.012,0.115-0.022c0.076-0.021,0.15-0.052,0.227-0.074c0.191-0.057,0.383-0.117,0.572-0.187
	c0.148-0.054,0.295-0.113,0.439-0.174c0.15-0.063,0.301-0.127,0.449-0.198c0.176-0.084,0.348-0.175,0.518-0.269
	c0.074-0.04,0.15-0.072,0.223-0.115c0.045-0.026,0.084-0.057,0.129-0.084c0.176-0.106,0.346-0.22,0.514-0.336
	c0.109-0.076,0.221-0.151,0.326-0.23c0.148-0.111,0.289-0.229,0.43-0.348c0.119-0.1,0.236-0.198,0.35-0.302
	c0.113-0.107,0.221-0.217,0.33-0.328c0.125-0.126,0.248-0.252,0.365-0.384c0.09-0.1,0.172-0.205,0.256-0.309
	c0.121-0.149,0.242-0.299,0.355-0.454c0.072-0.102,0.141-0.207,0.209-0.312c0.109-0.162,0.217-0.323,0.315-0.49
	c0.068-0.117,0.129-0.238,0.193-0.357c0.084-0.159,0.17-0.317,0.246-0.481c0.066-0.143,0.123-0.289,0.184-0.435
	c0.059-0.145,0.121-0.289,0.174-0.437c0.06-0.17,0.109-0.344,0.162-0.518c0.037-0.129,0.078-0.257,0.111-0.388
	c0.047-0.188,0.084-0.379,0.121-0.569c0.023-0.124,0.051-0.246,0.068-0.37c0.029-0.189,0.047-0.379,0.066-0.57
	c0.012-0.134,0.027-0.268,0.033-0.402c0.01-0.173,0.01-0.347,0.01-0.521c0-0.16,0.002-0.319-0.006-0.479
	c-0.008-0.147-0.021-0.295-0.035-0.442c-0.018-0.19-0.037-0.38-0.066-0.57c-0.018-0.122-0.043-0.245-0.064-0.368
	c-0.041-0.211-0.084-0.42-0.139-0.629c-0.012-0.046-0.018-0.092-0.029-0.138l-2.588-9.555l10.387-17.787
	c0.043-0.074,0.076-0.152,0.119-0.228c0.1-0.182,0.197-0.364,0.285-0.552c0.065-0.135,0.121-0.273,0.178-0.409
	c0.064-0.156,0.129-0.313,0.188-0.472c0.059-0.164,0.111-0.33,0.16-0.496c0.043-0.139,0.084-0.276,0.119-0.416
	c0.045-0.18,0.084-0.358,0.119-0.539c0.027-0.137,0.053-0.273,0.074-0.411c0.027-0.177,0.049-0.352,0.066-0.528
	c0.016-0.151,0.027-0.301,0.035-0.453c0.01-0.16,0.014-0.32,0.014-0.479c0.002-0.172-0.002-0.343-0.008-0.514
	c-0.008-0.14-0.018-0.279-0.029-0.419c-0.018-0.188-0.037-0.375-0.064-0.563c-0.02-0.127-0.041-0.252-0.064-0.378
	c-0.035-0.191-0.074-0.383-0.121-0.573c-0.031-0.129-0.068-0.256-0.105-0.383c-0.051-0.178-0.104-0.355-0.166-0.53
	c-0.053-0.148-0.111-0.294-0.17-0.44c-0.061-0.148-0.119-0.296-0.188-0.443c-0.08-0.176-0.172-0.348-0.262-0.519
	c-0.045-0.084-0.082-0.17-0.129-0.253c-0.018-0.032-0.041-0.061-0.059-0.093c-0.105-0.181-0.223-0.356-0.34-0.531
	c-0.07-0.103-0.137-0.209-0.209-0.31c-0.111-0.153-0.232-0.299-0.353-0.445c-0.092-0.114-0.182-0.23-0.279-0.339
	c-0.102-0.113-0.213-0.221-0.32-0.33c-0.129-0.131-0.256-0.263-0.389-0.385c-0.09-0.081-0.184-0.155-0.275-0.233
	c-0.166-0.139-0.33-0.277-0.502-0.405c-0.084-0.062-0.172-0.118-0.258-0.178c-0.189-0.131-0.379-0.26-0.576-0.377
	c-0.029-0.017-0.053-0.036-0.082-0.053c-0.072-0.043-0.15-0.075-0.225-0.116c-0.182-0.101-0.365-0.199-0.555-0.288
	c-0.137-0.064-0.273-0.121-0.412-0.179c-0.154-0.064-0.309-0.128-0.465-0.184c-0.17-0.061-0.338-0.114-0.51-0.165
	c-0.133-0.04-0.266-0.079-0.398-0.114c-0.188-0.047-0.373-0.088-0.563-0.125c-0.127-0.024-0.254-0.049-0.383-0.068
	c-0.186-0.029-0.373-0.052-0.561-0.069c-0.139-0.014-0.277-0.025-0.416-0.033C367.663,0.005,367.489,0,367.316,0
	c-0.156,0-0.313,0.002-0.469,0.008c-0.156,0.008-0.311,0.019-0.467,0.033c-0.172,0.016-0.344,0.034-0.516,0.059
	c-0.142,0.02-0.283,0.045-0.426,0.072c-0.176,0.033-0.352,0.068-0.525,0.111c-0.145,0.035-0.287,0.076-0.432,0.117
	c-0.162,0.048-0.324,0.098-0.486,0.153c-0.162,0.057-0.32,0.12-0.48,0.185c-0.137,0.056-0.272,0.11-0.406,0.172
	c-0.188,0.086-0.371,0.182-0.553,0.279c-0.076,0.041-0.154,0.074-0.23,0.117c-44.716,25.518-167.933,25.518-212.648,0
	c-0.082-0.047-0.168-0.082-0.25-0.126c-0.174-0.093-0.348-0.184-0.525-0.266c-0.145-0.066-0.289-0.125-0.436-0.185
	c-0.148-0.06-0.297-0.119-0.449-0.172c-0.172-0.06-0.344-0.112-0.516-0.163c-0.133-0.038-0.268-0.076-0.402-0.109
	c-0.182-0.045-0.365-0.083-0.549-0.116c-0.135-0.025-0.27-0.05-0.406-0.069c-0.176-0.025-0.354-0.045-0.529-0.061
	c-0.152-0.014-0.305-0.024-0.457-0.031C145,0.002,144.844,0,144.688,0c-0.176,0.001-0.352,0.005-0.527,0.015
	c-0.135,0.008-0.268,0.019-0.4,0.032c-0.195,0.018-0.389,0.042-0.582,0.072c-0.119,0.019-0.238,0.041-0.357,0.064
	c-0.197,0.038-0.395,0.08-0.59,0.131c-0.121,0.031-0.242,0.067-0.361,0.102c-0.184,0.056-0.367,0.112-0.549,0.179
	c-0.141,0.051-0.279,0.108-0.418,0.166c-0.154,0.064-0.309,0.127-0.459,0.199c-0.172,0.081-0.338,0.171-0.504,0.262
	c-0.088,0.047-0.176,0.085-0.262,0.135c-0.033,0.02-0.061,0.042-0.094,0.062c-0.18,0.106-0.352,0.224-0.523,0.343
	c-0.104,0.07-0.209,0.139-0.309,0.212c-0.156,0.116-0.305,0.241-0.453,0.366c-0.107,0.09-0.219,0.178-0.322,0.271
	c-0.121,0.11-0.234,0.23-0.35,0.347c-0.121,0.122-0.244,0.241-0.357,0.367c-0.088,0.1-0.17,0.206-0.256,0.31
	c-0.127,0.155-0.256,0.311-0.373,0.473c-0.07,0.095-0.133,0.196-0.199,0.295c-0.121,0.178-0.238,0.357-0.348,0.542
	c-0.018,0.031-0.039,0.06-0.059,0.092c-0.047,0.083-0.082,0.169-0.127,0.253c-0.092,0.172-0.182,0.344-0.264,0.519
	c-0.068,0.148-0.127,0.295-0.188,0.443c-0.059,0.146-0.117,0.292-0.17,0.44c-0.061,0.176-0.115,0.352-0.166,0.53
	c-0.037,0.127-0.072,0.254-0.104,0.383c-0.049,0.19-0.088,0.382-0.123,0.573c-0.023,0.126-0.045,0.251-0.063,0.378
	c-0.027,0.188-0.049,0.375-0.064,0.563c-0.014,0.14-0.023,0.279-0.029,0.419c-0.008,0.171-0.01,0.342-0.01,0.514
	c0.002,0.159,0.006,0.319,0.014,0.479c0.008,0.152,0.021,0.302,0.035,0.453c0.018,0.176,0.039,0.352,0.066,0.528
	c0.021,0.138,0.047,0.274,0.074,0.411c0.035,0.181,0.074,0.359,0.119,0.539c0.037,0.14,0.078,0.277,0.119,0.416
	c0.051,0.166,0.102,0.332,0.162,0.496c0.057,0.159,0.121,0.315,0.186,0.472c0.059,0.137,0.115,0.274,0.178,0.409
	c0.09,0.188,0.188,0.37,0.287,0.552c0.041,0.075,0.074,0.153,0.117,0.228l10.389,17.787l-2.59,9.554
	c-0.012,0.047-0.018,0.095-0.031,0.142c-0.053,0.206-0.096,0.412-0.135,0.62c-0.023,0.126-0.049,0.251-0.066,0.376
	c-0.029,0.189-0.047,0.376-0.064,0.564c-0.014,0.149-0.029,0.298-0.035,0.446c-0.008,0.159-0.008,0.317-0.008,0.477
	c0,0.175,0,0.349,0.01,0.521c0.008,0.136,0.021,0.271,0.035,0.405c0.018,0.189,0.035,0.379,0.064,0.566
	c0.02,0.126,0.045,0.251,0.07,0.376c0.035,0.19,0.072,0.378,0.119,0.564c0.033,0.134,0.074,0.264,0.113,0.396
	c0.051,0.171,0.102,0.342,0.16,0.51c0.055,0.15,0.117,0.298,0.178,0.445c0.059,0.143,0.115,0.286,0.18,0.427
	c0.076,0.165,0.164,0.326,0.25,0.488c0.063,0.117,0.123,0.234,0.189,0.35c0.1,0.169,0.207,0.332,0.316,0.496
	c0.068,0.103,0.135,0.206,0.207,0.307c0.113,0.156,0.234,0.307,0.357,0.457c0.084,0.102,0.166,0.206,0.254,0.306
	c0.117,0.132,0.24,0.258,0.365,0.384c0.109,0.111,0.217,0.223,0.332,0.33c0.111,0.103,0.229,0.2,0.346,0.299
	c0.143,0.119,0.283,0.238,0.434,0.35c0.104,0.079,0.213,0.153,0.32,0.228c0.17,0.118,0.344,0.233,0.521,0.341
	c0.043,0.026,0.082,0.057,0.125,0.082c0.072,0.042,0.148,0.074,0.221,0.114c0.17,0.093,0.34,0.185,0.518,0.269
	c0.152,0.072,0.305,0.139,0.459,0.203c0.141,0.059,0.279,0.115,0.424,0.168c0.197,0.072,0.398,0.136,0.598,0.195
	c0.072,0.021,0.139,0.048,0.209,0.067c0.035,0.01,0.07,0.012,0.104,0.021c0.793,0.207,1.596,0.313,2.396,0.322
	c0.041,0,0.082,0.008,0.123,0.008c0.141,0,0.279-0.012,0.42-0.017c0.098-0.004,0.193-0.005,0.291-0.012
	c0.291-0.021,0.578-0.053,0.863-0.099c0.008-0.001,0.014-0.001,0.021-0.003c0.303-0.049,0.602-0.113,0.896-0.189
	c0.07-0.019,0.139-0.042,0.209-0.062c0.213-0.061,0.426-0.126,0.633-0.199c0.107-0.038,0.213-0.081,0.318-0.122
	c0.166-0.066,0.332-0.135,0.494-0.209c0.119-0.055,0.236-0.111,0.354-0.17c0.146-0.074,0.289-0.153,0.432-0.234
	c0.119-0.067,0.24-0.133,0.355-0.206c0.148-0.092,0.291-0.192,0.434-0.292c0.117-0.082,0.234-0.16,0.348-0.248
	c0.211-0.159,0.414-0.327,0.609-0.504c0.082-0.074,0.16-0.153,0.24-0.23c0.145-0.139,0.285-0.279,0.422-0.427
	c0.072-0.077,0.141-0.158,0.211-0.238c0.145-0.167,0.283-0.339,0.418-0.517c0.051-0.068,0.104-0.136,0.154-0.206
	c0.162-0.228,0.316-0.463,0.461-0.706c0.014-0.023,0.031-0.044,0.045-0.067c1.984-3.399,15.26-7.473,32.509-2.807
	c11.262,3.046,36.378,13.495,39.919,46.254c-12.645,3.521-24.262,10.148-33.856,19.522c-13.754,13.439-21.885,31.047-23.201,49.984
	c-16.816,15.525-28.525,35.641-33.649,57.663h-7.924c-15.158,0-25.729-2.477-31.42-7.359c-4.646-3.986-6.502-9.899-8.65-16.746
	c-4.85-15.447-11.488-36.605-54.899-36.605c-5.523,0-10,4.478-10,10s4.477,10,10,10c28.725,0,31.395,8.504,35.817,22.593
	c4.668,14.873,10.936,34.826,49.153,37.751v46.013c-38.218,2.925-44.485,22.877-49.153,37.751
	c-4.422,14.089-7.092,22.593-35.817,22.593c-5.523,0-10,4.478-10,10c0,5.522,4.477,10,10,10c43.411,0,50.05-21.156,54.899-36.605
	c2.148-6.847,4.004-12.76,8.65-16.746c4.34-3.725,11.529-6.045,21.42-6.938v67.355c-38.218,2.925-44.485,22.877-49.153,37.751
	c-4.422,14.09-7.092,22.594-35.817,22.594c-5.523,0-10,4.478-10,10s4.477,10,10,10c43.411,0,50.05-21.156,54.899-36.605
	c2.148-6.847,4.004-12.76,8.65-16.745c4.402-3.778,11.738-6.108,21.846-6.974c5.363,66.102,61.442,118.268,129.607,118.268
	c68.167,0,124.244-52.166,129.607-118.268c10.107,0.865,17.443,3.195,21.846,6.973c4.645,3.986,6.502,9.899,8.65,16.746
	c4.848,15.448,11.488,36.605,54.899,36.605c5.523,0,10-4.478,10-10s-4.477-10-10-10c-28.725,0-31.395-8.504-35.817-22.594
	c-4.668-14.873-10.936-34.826-49.153-37.751v-67.355C395.924,307.25,403.113,309.57,407.455,313.294z M237.597,51.108
	c-4.107-4.763-8.564-8.62-13.072-11.772c10.326,0.792,20.898,1.193,31.478,1.193c10.576,0,21.148-0.401,31.475-1.193
	c-4.506,3.152-8.963,7.01-13.07,11.772c-9.414,10.912-15.049,24.16-16.824,39.487c-0.527-0.011-1.053-0.038-1.58-0.038
	c-0.529,0-1.055,0.027-1.582,0.038C252.644,75.269,247.009,62.021,237.597,51.108z M256.001,110.558
	c24.031,0,44.862,14.497,53.888,35.091c-16.479-8.643-34.966-13.258-53.888-13.258c-18.924,0-37.409,4.614-53.888,13.257
	C211.138,125.054,231.97,110.558,256.001,110.558z M256.001,152.39c42.634,0,80.03,28.635,91.452,68.264h-59.876
	c-5.523,0-10,4.477-10,10c0,11.697-9.68,21.213-21.576,21.213c-11.896,0-21.576-9.516-21.576-21.213c0-5.523-4.477-10-10-10h-59.876
	C175.969,181.026,213.366,152.39,256.001,152.39z M256.001,492c-60.673,0-110.033-48.742-110.033-108.654V240.654l0,0
	c0.008,0,6.158,0.001,6.166,0.001s-6.174-0.001-6.166-0.001h69.694c3.717,14.734,15.461,26.344,30.338,30v57.166
	c0,5.522,4.477,10,10,10c5.522,0,10-4.478,10-10v-57.166c14.875-3.656,26.619-15.266,30.339-30h69.694v142.692
	C366.034,443.258,316.674,492,256.001,492z"/>
<g>
</g>
<g>
</g>
<g>
</g>
<g>
</g>
<g>
</g>
<g>
</g>
<g>
</g>
<g>
</g>
<g>
</g>
<g>
</g>
<g>
</g>
<g>
</g>
<g>
</g>
<g>
</g>
<g>
</g>
</svg>
