<?xml version="1.0" encoding="iso-8859-1"?>
<!-- Generator: Adobe Illustrator 19.0.0, SVG Export Plug-In . SVG Version: 6.00 Build 0)  -->
<svg version="1.1" id="Capa_1" xmlns="http://www.w3.org/2000/svg" xmlns:xlink="http://www.w3.org/1999/xlink" x="0px" y="0px"
	 viewBox="0 0 511.998 511.998" style="enable-background:new 0 0 511.998 511.998;" xml:space="preserve">
<g>
	<path style="fill:#FFBA4C;" d="M485.975,108.904c-4.537-38.508-41.529-51.145-84.689-49.444c3.918,9.378,6.111,19.633,6.111,30.265
		c0,9.194-1.552,25.799-3.475,46.922L485.975,108.904z"/>
	<path style="fill:#FD4A4A;" d="M401.287,59.459c-16.215-38.805-50.17-63.17-116.788-41.102
		c-8.889,2.943-69.178-10.431-99.186,9.267c-5.917,3.885,52.704,22.775,48.464,28.497c-14.056,18.969-24.793,44.904-29.759,79.191
		c-0.738,5.098-1.519,10.099-2.336,15.009c141.698-80.013,215.18,210.152-81.169,208.748c-9.341,13.071-17.243,22.67-22.3,29.686
		c22.365,12.308,45.939,16.246,77.522,15.863c24.683-0.299,54.257-3.238,91.968-6.888c0.02-0.004,0.041-0.01,0.062-0.014
		c66.539-16.074,127.568-56.975,128.995-147.056c0.66-41.656,4.319-82.777,7.163-114.016c1.924-21.123,3.475-37.726,3.475-46.922
		C407.398,79.092,405.204,68.837,401.287,59.459z"/>
	<g>
		<path style="fill:#00E7E2;" d="M120.513,359.07c296.35,1.404,222.868-288.761,81.169-208.748
			c-9.89,5.679-19.193,12.687-27.164,22.916c-39.716,50.972-48.09,62.984-108.839,89.854c27.237,26.864,99.769,3.893,127.877-5.862
			c-39.973,39.424-85.956,57.67-154.328,66.492C53.194,347.578,85.536,359.07,120.513,359.07z"/>
		<path style="fill:#00E7E2;" d="M175.736,404.619c-31.583,0.383-55.157-3.557-77.522-15.863l-48.061,66.709
			C97.8,470.463,147.675,448.961,175.736,404.619z"/>
	</g>
	<path style="fill:#FD4A4A;" d="M175.736,404.619c-28.06,44.342-77.936,65.844-125.584,50.845L26.02,488.957
		c106.619,37.244,189.667-9.386,241.746-91.239c-0.021,0.004-0.041,0.01-0.062,0.014
		C229.992,401.382,200.418,404.32,175.736,404.619z"/>
</g>
<path d="M495.906,107.734c-2.507-21.281-14.004-37.72-33.247-47.537c-14.434-7.363-32.914-11.007-54.984-10.872
	C391.988,17.022,365.354,0,330.269,0c-14.594,0-30.919,2.941-48.532,8.739c-0.247,0.024-0.798,0.064-1.801,0.064
	c-3.065,0-7.789-0.351-13.26-0.759c-8.516-0.633-19.114-1.422-30.267-1.422c-25.117,0-43.624,4.136-56.584,12.642
	c-3.342,2.194-5.217,5.989-4.895,9.903c0.678,8.221,8.221,11.556,28.38,20.469c5.003,2.212,12.246,5.414,17.284,7.987
	c-13.22,20.56-22.114,46.163-26.472,76.255c-0.494,3.409-1.026,6.839-1.572,10.26c-10.627,6.625-18.942,13.998-25.92,22.952
	l-2.811,3.608c-37.41,48.042-45.196,58.04-102.185,83.248c-3.027,1.339-5.195,4.089-5.79,7.344
	c-0.596,3.256,0.458,6.595,2.815,8.919c16.269,16.046,45.747,19.637,87.916,10.791c-28.709,16.799-63.017,26.918-108.626,32.803
	c-3.327,0.43-6.217,2.499-7.695,5.51c-1.479,3.012-1.349,6.563,0.346,9.458c12.437,21.245,38.232,35.279,70.865,39.184
	c-1.249,1.631-2.459,3.203-3.623,4.714c-2.992,3.883-5.575,7.235-7.74,10.24c-0.001,0.002-0.002,0.004-0.004,0.006l-48.147,66.826
	c-0.006,0.01-0.012,0.018-0.019,0.026l-24.024,33.344c-1.845,2.561-2.372,5.84-1.424,8.849c0.948,3.01,3.261,5.394,6.239,6.435
	c25.964,9.07,51.189,13.605,75.519,13.603c25.398,0,49.82-4.942,73.076-14.824c39.343-16.718,74.788-48.053,102.718-90.742
	c37.385-9.595,67.548-25.505,89.652-47.359c27.877-27.561,42.369-63.984,43.07-108.255c0.609-38.438,3.835-76.854,6.536-106.789
	l75.885-25.656C493.653,116.863,496.458,112.425,495.906,107.734z M200.578,264.348c3.328-3.281,3.938-8.43,1.47-12.398
	c-2.468-3.969-7.353-5.699-11.77-4.167c-45.217,15.693-80.903,21.139-102.161,15.992c45.753-22.065,57.569-37.238,91.482-80.789
	l2.807-3.604c6.207-7.967,13.904-14.44,24.215-20.366c14.876-8.397,29.357-12.654,43.042-12.654
	c37.464,0,65.718,33.187,65.719,77.198c0.001,31.737-14.989,61.354-42.206,83.394c-34.024,27.552-86.074,42.117-150.523,42.12
	c-0.719-0.009-1.385-0.001-2.093-0.005c-0.008,0-0.016,0.001-0.024,0.001s-0.016-0.001-0.023-0.001
	c-26.101,0-48.051-6.561-61.978-18.064C121.697,320.637,163.681,300.739,200.578,264.348z M101.33,401.536
	c15.967,7.427,33.266,11.429,54.8,12.669c-23.452,26.758-56.585,39.793-89.081,34.913L101.33,401.536z M42.181,483.632
	l12.016-16.677c8.788,2.153,17.653,3.219,26.465,3.219c38.628,0,76.111-20.161,100.508-55.659
	c18.955-0.49,40.636-2.348,66.164-4.776C211.778,457.347,145.595,513.622,42.181,483.632z M266.786,387.658
	c-0.468,0.051-0.93,0.136-1.386,0.251l-2.587,0.25c-37.423,3.624-66.983,6.485-91.147,6.485c-24.043,0-42.138-2.921-58.128-9.582
	c0.048-0.063,0.096-0.124,0.144-0.187c3.406-4.421,7.493-9.725,11.945-15.813c67.725-0.461,123.052-16.538,160.134-46.567
	c31.998-25.911,49.62-61.048,49.619-98.936c-0.001-25.48-8.246-49.433-23.217-67.449c-15.94-19.183-38.137-29.747-62.5-29.747
	c-11.51,0-23.298,2.304-35.214,6.866c4.621-28.952,13.818-52.878,27.362-71.157c2.021-2.728,2.68-6.184,1.808-9.483
	c-1.932-7.308-9.454-11.177-32.222-21.243c-1.316-0.582-2.765-1.223-4.26-1.889c8.063-1.887,17.843-2.838,29.271-2.838
	c10.41,0,20.598,0.758,28.784,1.367c5.868,0.436,10.936,0.813,14.745,0.813c3.386,0,5.69-0.284,7.705-0.952
	c15.728-5.209,30.069-7.852,42.627-7.852c29.399,0,49.611,14.17,61.79,43.316c3.543,8.48,5.339,17.366,5.339,26.41
	c0,8.344-1.406,23.771-3.186,43.304c-0.085,0.931-0.171,1.874-0.257,2.825c-0.002,0.028-0.006,0.057-0.008,0.085
	c-2.827,31.043-6.521,72.641-7.185,114.566C385.627,322.145,345.257,368.284,266.786,387.658z M415.265,122.256
	c1.253-14.091,2.132-25.317,2.132-32.532c0-6.871-0.821-13.661-2.405-20.312c25.686,0.926,52.157,8.24,59.464,32.832
	L415.265,122.256z"/>
<path d="M219.403,316.778c1.249,0,2.52-0.236,3.749-0.733l0.395-0.163c5.078-2.15,7.436-7.996,5.298-13.078
	s-8.004-7.465-13.094-5.337l-0.102,0.041c-5.119,2.072-7.588,7.901-5.517,13.021C211.706,314.417,215.449,316.778,219.403,316.778z"
	/>
<path d="M246.439,302.454c1.938,0,3.896-0.563,5.617-1.734c27.329-18.603,42.639-43.619,45.503-74.353
	c0.513-5.498-3.53-10.371-9.028-10.884c-5.494-0.51-10.371,3.53-10.883,9.028c-2.285,24.513-14.681,44.591-36.844,59.677
	c-4.565,3.107-5.746,9.327-2.64,13.892C240.1,300.923,243.242,302.454,246.439,302.454z"/>
<path d="M335.226,68.997c-8.261,0-15,6.737-15,14.999s6.738,14.999,15,14.999s14.999-6.737,14.999-14.999
	C350.225,75.735,343.487,68.997,335.226,68.997z"/>
<g>
</g>
<g>
</g>
<g>
</g>
<g>
</g>
<g>
</g>
<g>
</g>
<g>
</g>
<g>
</g>
<g>
</g>
<g>
</g>
<g>
</g>
<g>
</g>
<g>
</g>
<g>
</g>
<g>
</g>
</svg>
