<?xml version="1.0" encoding="iso-8859-1"?>
<!-- Generator: Adobe Illustrator 19.0.0, SVG Export Plug-In . SVG Version: 6.00 Build 0)  -->
<svg version="1.1" id="Capa_1" xmlns="http://www.w3.org/2000/svg" xmlns:xlink="http://www.w3.org/1999/xlink" x="0px" y="0px"
	 viewBox="0 0 512 512" style="enable-background:new 0 0 512 512;" xml:space="preserve">
<g>
	<path style="fill:#E0AC91;" d="M70.537,66.707c-11.526,14.501,22.962,75.126,49.225,86.563
		c10.979-19.862,26.492-38.983,47.638-56.594c2.579-2.148,5.271-4.246,8.087-6.26C152.507,66.364,82.063,52.207,70.537,66.707z"/>
	<g>
		<path style="fill:#AE5F3D;" d="M217.381,54.346c-12.39,6.64-38.045,21.188-30.166,72.339c0,0,0.92-0.636,2.584-1.726
			c10.198-6.687,48.327-30.483,73.591-29.881l65.535,36.318c0,0,30.639-70.806-30.637-78.989
			C275.596,18.369,242.244,0.813,189.79,14.868C199.466,24.544,210.502,30.818,217.381,54.346z"/>
		<path style="fill:#AE5F3D;" d="M256.001,378.129c-42.225,0-78.37,16.031-93.271,38.751c-4.696,7.161-7.282,14.987-7.282,23.186
			c0,34.206,45.018,61.937,100.553,61.937c55.533,0,100.552-27.73,100.552-61.937c0-8.198-2.585-16.024-7.282-23.186
			C334.37,394.16,298.225,378.129,256.001,378.129z"/>
	</g>
	<g>
		<path style="fill:#E0AC91;" d="M441.464,66.707c-11.489-14.453-81.511-0.435-104.723,23.473l-0.208,0.21
			c0.142,0.114,0.33,0.276,0.426,0.345c2.654,1.917,5.199,3.907,7.643,5.941c21.146,17.612,36.657,36.733,47.638,56.594
			C418.501,141.833,452.99,81.208,441.464,66.707z"/>
		<path style="fill:#E0AC91;" d="M119.762,153.27c-58.022,104.955,10.506,230.597,42.969,263.61
			c14.9-22.72,51.046-38.751,93.271-38.751c42.224,0,78.369,16.031,93.27,38.751c32.463-33.013,100.991-158.655,42.969-263.61
			c-10.98-19.862-26.492-38.983-47.638-56.594c-2.443-2.034-4.988-4.024-7.643-5.941c-0.096-0.068-0.284-0.23-0.426-0.345
			l-0.102,0.103c1.421,20.275-7.507,40.905-7.507,40.905L263.39,95.079c-25.264-0.603-63.393,23.194-73.591,29.881
			c-1.664,1.09-2.584,1.726-2.584,1.726c-3.148-20.44-0.942-35.035,3.633-45.616c-0.956,0.529-5.638,3.049-6.569,3.601
			c-3.057,1.81-5.985,3.736-8.792,5.745c-2.816,2.015-5.508,4.112-8.087,6.26C146.254,114.287,130.741,133.408,119.762,153.27z"/>
	</g>
</g>
<path d="M452.126,86.784c2.862-11.484,1.909-20.332-2.834-26.299c-4.626-5.819-12.689-8.936-24.652-9.529
	c-23.469-1.166-58.977,7.639-81.888,21.928c-0.808-2.089-1.747-4.141-2.871-6.128c-7.051-12.464-19.076-20.368-35.783-23.537
	C283.649,14.537,256.651,0,223.793,0c-11.381,0-23.692,1.753-36.591,5.208c-3.451,0.925-6.146,3.62-7.071,7.071
	s0.061,7.133,2.588,9.659c1.909,1.909,3.823,3.658,5.675,5.349c6.524,5.958,12.304,11.237,16.857,22.504
	c-7.116,4.541-15.949,11.83-22.088,24.075c-2.191,1.191-3.396,1.854-3.98,2.199c-0.954,0.565-1.9,1.148-2.845,1.74
	c-21.885-17.042-62.55-28.054-88.667-26.865c-12.132,0.552-20.297,3.674-24.963,9.544c-4.743,5.967-5.696,14.815-2.834,26.3
	c5.636,22.617,26.237,55.372,46.623,70.201c-11.285,23.15-17.655,48.439-19.012,75.732c-2.336,47.036,11.068,89.838,22.725,117.462
	c13.02,30.855,28.487,54.364,40.258,68.091c-3.308,6.928-5.02,14.253-5.02,21.795c0,20.101,12.168,38.665,34.264,52.274
	C200.295,505.018,227.389,512,256.001,512s55.705-6.982,76.288-19.661c22.096-13.609,34.264-32.174,34.264-52.274
	c0-7.541-1.713-14.866-5.021-21.794c11.771-13.727,27.238-37.235,40.258-68.09c11.656-27.624,25.06-70.425,22.725-117.46
	c-1.355-27.294-7.727-52.584-19.012-75.734C425.89,142.156,446.489,109.401,452.126,86.784z M222.105,63.16
	c4.168-2.234,6.201-7.082,4.874-11.62c-4.37-14.949-10.363-23.922-16.505-30.649C215.08,20.298,219.528,20,223.793,20
	c27.502,0,49.148,12.416,66.175,37.956c1.596,2.394,4.145,3.984,6.996,4.365c12.668,1.692,21.006,6.352,25.488,14.246
	c6.489,11.426,4.111,28.457,0.876,40.297l-55.091-30.531c-1.413-0.783-2.994-1.212-4.609-1.251c-0.395-0.009-0.791-0.014-1.19-0.014
	c-21.671,0-49.951,14.525-66.713,24.427c-0.116-9.899,1.437-17.604,3.92-23.686c0.261-0.484,0.476-0.988,0.653-1.506
	C205.962,71.823,215.643,66.624,222.105,63.16z M81.819,89.846c-3.899-10.174-3.786-15.494-3.374-16.933
	c3.052-2.121,17.291-3.798,39.95,1.363c15.998,3.643,30.871,9.546,41.04,16.048c-17.558,14.87-31.951,31.242-43.138,49.041
	C103.853,129.398,88.977,108.52,81.819,89.846z M256.001,492.001c-49.085,0-90.553-23.784-90.553-51.936
	c0-6.093,1.945-11.981,5.487-17.468c0.09-0.128,0.173-0.259,0.256-0.391c13.011-19.666,46.601-34.078,84.81-34.078
	s71.799,14.413,84.81,34.079c0.082,0.131,0.165,0.261,0.255,0.389c3.541,5.487,5.487,11.375,5.487,17.468
	C346.553,468.217,305.085,492.001,256.001,492.001z M349.524,401.386c-4.801-4.92-10.562-9.485-17.234-13.596
	c-20.584-12.679-47.678-19.662-76.289-19.662c-28.612,0-55.706,6.982-76.289,19.662c-6.674,4.11-12.434,8.676-17.235,13.596
	c-22.77-28.756-58.583-95.824-55.015-167.676c2.547-51.291,24.866-94.811,66.337-129.351c0.714-0.595,1.426-1.173,2.137-1.742
	c-0.37,6.169-0.184,12.987,0.713,20.538c-11.782,10.7-21.748,22.26-29.678,34.459c-3.01,4.63-1.695,10.824,2.936,13.834
	c1.683,1.094,3.571,1.617,5.439,1.617c3.272,0,6.479-1.604,8.395-4.551c8.245-12.685,19.063-24.664,32.151-35.61
	c13.813-9.07,44.854-26.879,64.959-27.799l63.227,35.039c1.499,0.83,3.169,1.253,4.848,1.253c1.085,0,2.175-0.177,3.223-0.534
	c2.672-0.91,4.834-2.905,5.955-5.495c0.362-0.837,4.788-11.265,7.08-24.937c36.993,33.52,56.957,74.948,59.358,123.28
	C408.108,305.565,372.296,372.63,349.524,401.386z M352.565,90.324c10.22-6.532,25.19-12.46,41.244-16.094
	c22.547-5.104,36.709-3.426,39.747-1.317c0.412,1.439,0.525,6.759-3.374,16.933c-7.157,18.674-22.033,39.553-34.479,49.52
	C384.517,121.566,370.122,105.194,352.565,90.324z"/>
<path d="M145.771,180.092c-5.092-2.131-10.952,0.268-13.086,5.363c-0.023,0.056-0.035,0.085-0.058,0.141
	c-2.091,5.111,0.358,10.95,5.47,13.042c1.239,0.507,2.521,0.747,3.782,0.747c3.94,0,7.675-2.344,9.26-6.216
	c0.008-0.019,0.021-0.052,0.032-0.081C153.238,188.015,150.836,182.212,145.771,180.092z"/>
<path d="M186.001,222.002c-11.016,0-20,8.984-20,20s8.984,20,20,20s20-8.984,20-20S197.017,222.002,186.001,222.002z"/>
<path d="M326,222.002c-11.016,0-20,8.984-20,20s8.984,20,20,20c11.017,0,20.001-8.984,20.001-20S337.017,222.002,326,222.002z"/>
<path d="M221.339,429.615c-1.827-5.212-7.537-7.953-12.746-6.125c-5.211,1.829-7.954,7.535-6.125,12.747l5.01,14.279
	c1.443,4.116,5.308,6.692,9.436,6.692c1.099,0,2.216-0.182,3.311-0.566c5.211-1.829,7.954-7.535,6.125-12.747L221.339,429.615z"/>
<path d="M303.407,423.49c-5.212-1.827-10.918,0.915-12.746,6.125l-5.01,14.279c-1.829,5.211,0.914,10.918,6.125,12.747
	c1.096,0.384,2.212,0.566,3.311,0.566c4.128,0,7.992-2.576,9.436-6.692l5.01-14.279C311.361,431.025,308.618,425.318,303.407,423.49
	z"/>
<g>
</g>
<g>
</g>
<g>
</g>
<g>
</g>
<g>
</g>
<g>
</g>
<g>
</g>
<g>
</g>
<g>
</g>
<g>
</g>
<g>
</g>
<g>
</g>
<g>
</g>
<g>
</g>
<g>
</g>
</svg>
