<?xml version="1.0" encoding="iso-8859-1"?>
<!-- Generator: Adobe Illustrator 19.0.0, SVG Export Plug-In . SVG Version: 6.00 Build 0)  -->
<svg version="1.1" id="Capa_1" xmlns="http://www.w3.org/2000/svg" xmlns:xlink="http://www.w3.org/1999/xlink" x="0px" y="0px"
	 viewBox="0 0 512 512" style="enable-background:new 0 0 512 512;" xml:space="preserve">
<g>
	<path style="fill:#A7A7A7;" d="M126.101,254.239c-91.631-56.084-28.843-120.797,37.288-54.647c2.896-3.197,5.862-6.287,8.894-9.257
		c6.158-6.033,12.679-11.54,19.526-16.378c-3.711-4.674-70.193-88.123-119.193-128.261C22.192,4.396,88.242,109.081,31.431,96.265
		c-56.812-12.815,36.043,76.04-2.582,76.017c-38.626-0.023-20.809,48.083,80.214,125.116
		C113.29,282.7,119.064,268.154,126.101,254.239z"/>
	<path style="fill:#FFDDDD;" d="M163.388,199.593c-66.131-66.151-128.919-1.438-37.288,54.647
		C136.205,234.258,148.912,215.572,163.388,199.593z"/>
	<path style="fill:#A7A7A7;" d="M439.385,45.698c-49,40.138-115.483,123.588-119.193,128.261
		c6.848,4.838,13.368,10.345,19.525,16.378c3.031,2.969,5.997,6.059,8.895,9.257c66.131-66.151,128.919-1.438,37.288,54.647
		c7.036,13.915,12.811,28.461,17.036,43.159c101.025-77.032,118.841-125.14,80.215-125.116c-38.626,0.023,54.23-88.832-2.582-76.017
		S489.808,4.396,439.385,45.698z"/>
	<path style="fill:#FFDDDD;" d="M385.9,254.239c91.631-56.084,28.843-120.797-37.288-54.647
		C363.087,215.572,375.795,234.258,385.9,254.239z"/>
	<path style="fill:#F0F0F0;" d="M385.9,254.239c-10.104-19.981-22.812-38.667-37.288-54.647c-2.896-3.197-5.862-6.287-8.895-9.257
		c-6.157-6.033-12.678-11.54-19.525-16.378c-19.101-13.495-40.749-21.783-64.191-21.783s-45.091,8.288-64.192,21.783
		c-6.848,4.838-13.368,10.345-19.526,16.378c-3.03,2.969-5.997,6.059-8.894,9.257c-14.476,15.98-27.184,34.664-37.288,54.647
		c-7.036,13.915-12.811,28.461-17.037,43.159C84,384.552,113.305,477.117,256.001,476.012c142.695,1.105,172-91.459,146.936-178.614
		C398.711,282.7,392.936,268.154,385.9,254.239L385.9,254.239z M256.197,320.07c25.333,0,45.868,24.029,45.868,36.694
		c0,12.667-20.535,22.936-45.868,22.936l-0.196-0.002l-0.196,0.002c-25.333,0-45.869-10.269-45.869-22.936
		c0-12.665,20.536-36.694,45.869-36.694l0.196,0.002L256.197,320.07z"/>
	<path style="fill:#838383;" d="M302.065,356.764c0-12.665-20.535-36.694-45.868-36.694l-0.196,0.002l-0.196-0.002
		c-25.333,0-45.869,24.029-45.869,36.694c0,12.667,20.536,22.936,45.869,22.936l0.196-0.002l0.196,0.002
		C281.53,379.699,302.065,369.431,302.065,356.764z"/>
</g>
<path d="M510.755,178.236c-1.996-5.902-8.155-15.765-27.026-15.95c1.446-5.746,7.627-16.946,11.549-24.055
	c10.388-18.823,19.357-35.08,10.911-46.325c-7.495-9.98-22.794-6.529-27.819-5.395c-6.298,1.422-9.696,0.826-10.693-0.113
	c-3.68-3.469-0.99-19.851,0.303-27.725c2.245-13.673,4.184-25.481-5.224-30.912c-9.336-5.393-20.229,2.438-29.706,10.2
	c-42.643,34.93-97.085,100.575-114.968,122.652c-19.764-12.136-40.79-18.439-62.08-18.439s-42.317,6.303-62.08,18.439
	C176.037,138.535,121.597,72.89,78.954,37.96c-9.478-7.763-20.366-15.591-29.706-10.2C39.84,33.193,41.778,45,44.023,58.673
	c1.293,7.874,3.983,24.256,0.303,27.725c-0.997,0.939-4.396,1.535-10.693,0.113c-5.023-1.135-20.322-4.584-27.819,5.395
	c-8.447,11.245,0.523,27.502,10.911,46.325c3.922,7.107,10.102,18.308,11.549,24.055c-18.872,0.187-25.034,10.048-27.029,15.95
	c-4.312,12.751,2.587,30.424,20.503,52.527c16.654,20.546,42.831,44.837,75.918,70.485c-9.784,38.269-8.671,74.945,3.359,104.411
	c14.966,36.66,53.565,80.363,152.45,80.363c0.844,0,1.672-0.002,2.523-0.01c0.852,0.008,1.746,0.016,2.54,0.01
	c98.875,0,137.487-43.696,152.45-80.352c12.032-29.471,13.144-66.155,3.351-104.429c33.083-25.647,59.256-49.935,75.909-70.48
	C508.168,208.66,515.067,190.987,510.755,178.236z M20.193,184.642c0.476-1.412,3.942-2.359,8.628-2.359c0.015,0,0.025,0,0.043,0
	c10.193,0,15.049-4.592,17.325-8.446c6.734-11.401-1.926-27.096-11.954-45.269c-3.825-6.934-9.824-17.804-11.378-23.543
	c1.395,0.078,3.447,0.336,6.373,0.996c12.546,2.83,22.241,1.125,28.812-5.07c11.422-10.765,8.258-30.035,5.715-45.519
	c-0.227-1.381-0.487-2.971-0.733-4.578c0.973,0.744,2.054,1.598,3.252,2.58c40.083,32.832,92.99,96.31,111.29,118.793
	c-4.172,3.383-8.272,7.035-12.284,10.966c-0.78,0.766-1.554,1.539-2.325,2.316c-10.822-9.417-21.987-16.165-33.292-20.106
	c-13.153-4.584-25.704-5.023-36.298-1.268c-13.037,4.621-21.649,15.364-23.038,28.738c-2.232,21.497,13.312,44.851,42.896,64.949
	c-3.465,7.492-6.583,15.147-9.319,22.918C29.396,221.899,18.036,191.02,20.193,184.642z M122.381,239.851
	c-25.098-17.605-33.247-34.416-32.157-44.913c0.755-7.266,5.76-10.511,9.827-11.952c10.027-3.557,28.457-0.762,49.443,17.331
	C139.369,212.435,130.255,225.745,122.381,239.851z M392.474,398.112c-18.139,44.427-64.449,67.911-133.934,67.909
	c-0.005,0-0.013,0-0.017,0c-0.806,0-1.632-0.002-2.445-0.01c-0.025,0-0.052,0-0.077,0c-0.025,0-0.052,0-0.077,0
	c-0.825,0.008-1.628,0.01-2.445,0.01c-69.48,0-115.794-23.486-133.934-67.921c-11.882-29.105-10.772-63.42-1.304-96.751
	c0.346-0.801,0.589-1.631,0.714-2.475c3.846-12.954,8.946-25.734,15.02-37.98c0.341-0.398,0.663-0.818,0.944-1.281
	c0.57-0.936,0.962-1.928,1.197-2.939c9.519-18.315,21.196-35.305,34.096-49.7c0.096-0.088,0.196-0.168,0.289-0.262
	c0.328-0.328,0.619-0.678,0.893-1.037c2.585-2.838,5.215-5.576,7.888-8.196c4.736-4.639,10.325-9.536,16.681-14.155
	c0.773-0.338,1.52-0.768,2.213-1.316c0.389-0.309,0.738-0.646,1.069-0.996c15.223-10.388,34.453-18.835,56.757-18.835
	c22.305,0,41.535,8.448,56.757,18.835c0.331,0.35,0.681,0.688,1.069,0.996c0.693,0.549,1.439,0.979,2.213,1.316
	c6.353,4.619,11.944,9.517,16.68,14.155c2.674,2.619,5.305,5.361,7.893,8.2c0.272,0.358,0.562,0.707,0.889,1.033
	c0.092,0.092,0.191,0.172,0.285,0.258c12.899,14.394,24.578,31.379,34.097,49.691c0.235,1.017,0.628,2.014,1.2,2.953
	c0.284,0.467,0.609,0.891,0.953,1.293c6.064,12.224,11.16,24.982,15.005,37.917c0.127,0.889,0.38,1.762,0.752,2.604
	C403.245,334.739,404.348,369.028,392.474,398.112z M362.507,200.317c20.986-18.093,39.415-20.888,49.442-17.331
	c4.066,1.441,9.072,4.686,9.827,11.952c1.09,10.497-7.059,27.309-32.154,44.911C381.747,225.745,372.631,212.435,362.507,200.317z
	 M408.1,280.735c-2.736-7.769-5.855-15.423-9.321-22.914c29.582-20.099,45.124-43.45,42.892-64.947
	c-1.388-13.374-10.001-24.117-23.038-28.738c-10.592-3.756-23.146-3.316-36.298,1.268c-11.306,3.941-22.472,10.69-33.293,20.108
	c-0.772-0.779-1.545-1.553-2.325-2.318c-4.012-3.93-8.111-7.583-12.283-10.966c18.299-22.482,71.207-85.961,111.29-118.793
	c1.198-0.982,2.279-1.836,3.252-2.58c-0.246,1.607-0.507,3.197-0.733,4.578c-2.542,15.483-5.706,34.754,5.715,45.519
	c6.57,6.195,16.263,7.901,28.812,5.07c2.926-0.66,4.979-0.918,6.373-0.996c-1.554,5.738-7.553,16.608-11.378,23.543
	c-10.028,18.173-18.689,33.867-11.954,45.269c2.276,3.854,7.13,8.446,17.325,8.446c0.014,0,0.027,0,0.043,0
	c4.684,0,8.151,0.947,8.628,2.359C493.964,191.02,482.603,221.897,408.1,280.735z"/>
<path d="M256.197,310.069l-0.172,0.002c-0.079-0.002-0.171-0.002-0.221-0.002c-30.84,0-55.87,28.256-55.87,46.694
	c0,16.827,19.296,29.937,46.262,32.479v14.663c-0.221,0.771-0.36,1.578-0.388,2.41c-2.207,1.746-10.042,3.303-16.576,1.063
	c-5.223-1.793-10.912,0.988-12.705,6.213c-1.793,5.223,0.988,10.911,6.212,12.704c4.305,1.479,8.999,2.191,13.641,2.191
	c7.223,0,14.314-1.73,19.62-4.988c5.305,3.258,12.396,4.988,19.62,4.988c4.642,0,9.337-0.713,13.641-2.191
	c5.224-1.793,8.006-7.481,6.212-12.704c-1.793-5.225-7.485-8.005-12.705-6.213c-6.53,2.242-14.358,0.685-16.571-1.059v-17.112
	c26.743-2.625,45.868-15.692,45.868-32.443C312.066,338.325,287.037,310.069,256.197,310.069z M256.224,369.698h-0.009
	c-0.006,0-0.013-0.002-0.018-0.002s-0.01,0.002-0.015,0.002l-0.132-0.002c-0.033,0-0.066,0-0.1,0l-0.146,0.002
	c-23.3,0-35.868-9.181-35.868-12.935c0-6.246,15.255-26.649,35.802-26.693c0.085,0,0.204,0.002,0.263,0.002l0.229-0.002
	c20.564,0.021,35.834,20.442,35.834,26.693C292.064,360.516,279.505,369.69,256.224,369.698z"/>
<circle cx="307.441" cy="294.011" r="20.001"/>
<circle cx="204.564" cy="294.011" r="20.001"/>
<g>
</g>
<g>
</g>
<g>
</g>
<g>
</g>
<g>
</g>
<g>
</g>
<g>
</g>
<g>
</g>
<g>
</g>
<g>
</g>
<g>
</g>
<g>
</g>
<g>
</g>
<g>
</g>
<g>
</g>
</svg>
