<?xml version="1.0" encoding="iso-8859-1"?>
<!-- Generator: Adobe Illustrator 19.0.0, SVG Export Plug-In . SVG Version: 6.00 Build 0)  -->
<svg version="1.1" id="Capa_1" xmlns="http://www.w3.org/2000/svg" xmlns:xlink="http://www.w3.org/1999/xlink" x="0px" y="0px"
	 viewBox="0 0 512 512" style="enable-background:new 0 0 512 512;" xml:space="preserve">
<g>
	<g>
		<path style="fill:#838383;" d="M48.604,196.591c17.102-43.774,47.346-82.357,91.512-106.44
			c9.813-5.351,20.314-9.986,31.511-13.803c-14.185-30.022-42.941-50.561-76.107-50.561C48.288,25.789,10,67.436,10,118.812
			C10,151.34,25.354,179.964,48.604,196.591z"/>
		<path style="fill:#838383;" d="M371.885,90.152c44.167,24.083,74.41,62.666,91.513,106.44
			c23.25-16.627,38.603-45.251,38.603-77.78c0-51.376-38.287-93.023-85.518-93.023c-33.167,0-61.923,20.538-76.107,50.561
			C351.571,80.167,362.072,84.801,371.885,90.152z"/>
	</g>
	<path style="fill:#F0F0F0;" d="M463.397,196.591c-17.103-43.774-47.346-82.357-91.513-106.44
		c-9.813-5.351-20.314-9.986-31.51-13.803c-23.297-7.942-49.605-12.344-79.004-12.284c-3.585,0.007-7.156,0.007-10.74,0
		c-29.4-0.06-55.709,4.342-79.005,12.284c-11.196,3.817-21.697,8.452-31.511,13.803c-44.166,24.083-74.41,62.666-91.512,106.44
		C17.883,275.214,29.555,370.581,79.077,428.75c42.197,49.57,116.535,57.602,176.922,57.458
		c60.388,0.143,134.726-7.888,176.924-57.458C482.443,370.581,494.115,275.214,463.397,196.591L463.397,196.591z M284.508,194.968
		c17.605-26.977,59.061-32.374,92.593-12.056c33.531,20.318,46.442,58.659,28.835,85.636c-17.605,26.976-59.06,32.374-92.592,12.056
		C279.813,260.286,266.901,221.945,284.508,194.968L284.508,194.968z M255.45,323.132c17.276,0,31.28,7.161,31.28,15.996
		c0,8.834-14.004,25.594-31.28,25.594s-31.28-16.76-31.28-25.594C224.17,330.293,238.174,323.132,255.45,323.132L255.45,323.132z
		 M134.9,182.913c33.531-20.318,74.986-14.921,92.593,12.056c17.606,26.977,4.696,65.316-28.836,85.636
		c-33.532,20.318-74.987,14.92-92.593-12.056C88.458,241.572,101.369,203.231,134.9,182.913z"/>
	<g>
		<path style="fill:#838383;" d="M198.657,280.605c33.532-20.319,46.442-58.659,28.836-85.636s-59.062-32.374-92.593-12.056
			s-46.442,58.659-28.836,85.636C123.67,295.525,165.125,300.923,198.657,280.605z"/>
		<path style="fill:#838383;" d="M284.508,194.968c-17.606,26.977-4.695,65.316,28.836,85.636
			c33.531,20.318,74.986,14.92,92.592-12.056c17.608-26.977,4.696-65.317-28.835-85.636
			C343.568,162.594,302.113,167.992,284.508,194.968z"/>
		<path style="fill:#838383;" d="M286.73,339.128c0-8.835-14.004-15.996-31.28-15.996s-31.28,7.161-31.28,15.996
			c0,8.834,14.004,25.594,31.28,25.594S286.73,347.962,286.73,339.128z"/>
	</g>
	<path d="M156.433,131.051c1.576,0,3.175-0.373,4.665-1.162l0.296-0.158c4.869-2.605,6.706-8.665,4.1-13.534
		c-2.604-4.869-8.661-6.705-13.534-4.102l-0.21,0.113c-4.883,2.582-6.748,8.632-4.166,13.515
		C149.377,129.117,152.845,131.051,156.433,131.051z"/>
	<path d="M183.69,119.291c1.05,0,2.118-0.166,3.168-0.518c19.297-6.444,40.564-9.71,63.216-9.71c0.155,0,0.311,0,0.468,0
		c7.476,0.015,14.931,0.317,22.157,0.898c5.504,0.446,10.326-3.662,10.769-9.167c0.442-5.505-3.662-10.326-9.167-10.769
		c-7.744-0.622-15.724-0.946-23.719-0.962c-0.169,0-0.338,0-0.508,0c-24.81,0-48.207,3.613-69.55,10.74
		c-5.239,1.749-8.067,7.414-6.318,12.652C175.605,116.644,179.505,119.292,183.69,119.291z"/>
	<path d="M243.689,236.525c3.813-16.751,1.036-33.451-7.821-47.022c-11.81-18.095-33.521-28.898-58.076-28.898
		c-16.598,0-33.222,4.756-48.073,13.756c-20.541,12.447-35.066,31.63-39.848,52.629c-3.814,16.751-1.037,33.452,7.82,47.024
		c11.81,18.095,33.52,28.898,58.075,28.898c16.599,0,33.223-4.757,48.074-13.756C224.382,276.709,238.906,257.526,243.689,236.525z
		 M155.766,282.913c-18.039,0-33.102-7.227-41.327-19.829c-5.953-9.123-7.705-20.068-5.067-31.653
		c3.585-15.744,14.779-30.311,30.712-39.965c11.726-7.105,24.765-10.861,37.708-10.861c18.04,0,33.104,7.228,41.328,19.83
		c5.953,9.122,7.706,20.067,5.068,31.651c-3.585,15.745-14.779,30.312-30.713,39.967
		C181.749,279.158,168.71,282.913,155.766,282.913z"/>
	<path d="M164.75,211.758c-11.017,0-20.001,8.984-20.001,20s8.984,19.999,20.001,19.999c11.016,0,20-8.983,20-19.999
		C184.75,220.743,175.766,211.758,164.75,211.758z"/>
	<path d="M314.591,374.434c-5.375-1.25-10.755,2.089-12.01,7.468c-2.897,12.424-18.844,19.572-37.131,21.413v-29.958
		c6.784-1.846,13.294-5.527,18.949-10.816c7.722-7.222,12.331-15.974,12.331-23.413c0-14.82-17.747-25.996-41.28-25.996
		s-41.28,11.176-41.28,25.996c0,7.439,4.609,16.191,12.331,23.413c5.655,5.289,12.165,8.97,18.949,10.816v29.892
		c-0.417-0.044-0.836-0.083-1.252-0.132c-19.737-2.341-34.576-10.455-34.517-18.874c0.038-5.523-4.407-10.031-9.93-10.07
		c-0.025,0-0.048,0-0.072,0c-5.489,0-9.959,4.431-9.998,9.93c-0.139,19.841,20.335,35.1,52.16,38.875
		c4.396,0.521,8.843,0.782,13.262,0.806c0.115,0.004,0.229,0.018,0.347,0.018c0.065,0,0.128-0.008,0.192-0.01
		c0.031,0,0.064,0.001,0.096,0.001c12.232,0,24.209-1.879,34.21-5.471c17.367-6.237,28.77-17.559,32.109-31.878
		C323.313,381.065,319.969,375.689,314.591,374.434z M234.209,339.411c1.305-1.972,8.817-6.279,21.241-6.279
		c12.397,0,19.903,4.288,21.232,6.266c-0.815,4.112-9.913,15.32-21.226,15.325c-0.002,0-0.004,0-0.006,0s-0.004,0-0.006,0
		C244.078,354.717,234.949,343.406,234.209,339.411z"/>
	<path d="M512,118.812c0-56.807-42.849-103.023-95.518-103.023c-33.322,0-63.655,18.362-81.035,48.464
		c-22.698-6.774-47.254-10.188-73.491-10.188h-0.604c-3.572,0.006-7.134,0.006-10.7,0h-0.605c-26.237,0-50.793,3.415-73.49,10.19
		c-17.382-30.103-47.714-48.466-81.038-48.466C42.849,15.789,0,62.005,0,118.812c0,31.925,13.594,61.695,36.697,81.167
		c-12.744,35.906-17.585,75.832-13.67,114.593c4.713,46.657,21.915,89.509,48.437,120.662c20.145,23.664,49.04,40.603,85.886,50.345
		c27.062,7.155,58.818,10.633,97.084,10.633l1.543-0.002l1.59,0.002c38.265,0,70.021-3.479,97.085-10.635
		c36.847-9.742,65.743-26.68,85.887-50.343c26.523-31.156,43.728-74.01,48.443-120.668c3.919-38.764-0.923-78.691-13.665-114.597
		C498.412,180.497,512,150.731,512,118.812z M416.482,35.789c41.641,0,75.518,37.244,75.518,83.023
		c0,23.652-9.055,45.776-24.691,61.393c-0.095-0.207-0.186-0.417-0.281-0.624c-17.142-37.104-43.272-67.991-75.567-89.321
		c-1.849-1.221-3.72-2.403-5.605-3.563c7.778-9.982,18.907-15.91,30.628-15.91c12.994,0,24.94,6.919,32.773,18.982
		c3.008,4.631,9.201,5.949,13.833,2.941c4.632-3.008,5.948-9.201,2.94-13.832c-11.592-17.852-29.651-28.09-49.547-28.09
		c-19.006,0-36.788,9.831-48.317,26.192c-4.392-2.141-8.867-4.137-13.431-5.978C368.779,49.041,391.621,35.789,416.482,35.789z
		 M20,118.812c0-45.779,33.877-83.023,75.518-83.023c24.862,0,47.706,13.254,61.751,35.217c-4.564,1.843-9.038,3.839-13.429,5.979
		c-11.53-16.365-29.314-26.197-48.321-26.197c-19.896,0-37.955,10.238-49.548,28.09c-3.008,4.632-1.691,10.825,2.94,13.833
		c4.635,3.009,10.824,1.691,13.833-2.94c7.834-12.063,19.78-18.982,32.775-18.982c11.722,0,22.854,5.931,30.632,15.917
		c-1.883,1.158-3.752,2.339-5.599,3.559c-32.293,21.331-58.423,52.22-75.566,89.327c-0.096,0.208-0.188,0.419-0.283,0.627
		C29.06,164.598,20,142.469,20,118.812z M425.31,422.27c-41.159,48.349-115.446,53.941-167.743,53.942l-1.59-0.002l-1.543,0.002
		c-52.296,0-126.582-5.592-167.741-53.942c-46.817-54.994-58.206-146.113-28.97-221.493c0.171-0.372,0.317-0.75,0.439-1.135
		c1.551-3.934,3.207-7.825,4.98-11.664c12.166-26.334,36.127-63.706,80.32-88.366c0.395-0.141,0.788-0.303,1.173-0.497
		c0.589-0.297,1.134-0.647,1.636-1.038c8.277-4.431,17.242-8.416,26.949-11.807c0.912-0.146,1.818-0.413,2.695-0.827
		c0.154-0.073,0.297-0.159,0.445-0.238c21.008-6.947,45.394-11.141,73.685-11.141h0.565c3.598,0.007,7.179,0.007,10.78,0h0.564
		c28.282,0,52.662,4.19,73.667,11.131c0.153,0.083,0.302,0.172,0.462,0.248c0.884,0.417,1.798,0.686,2.716,0.83
		c9.684,3.383,18.627,7.356,26.886,11.773c0.515,0.403,1.074,0.763,1.68,1.068c0.395,0.199,0.798,0.364,1.204,0.506
		c44.184,24.659,68.139,62.021,80.301,88.348c1.753,3.794,3.393,7.64,4.928,11.527c0.145,0.48,0.327,0.952,0.547,1.414
		C483.512,276.26,472.103,367.302,425.31,422.27z"/>
	<path d="M382.283,174.36c-14.853-8.999-31.476-13.756-48.074-13.756c-24.556,0-46.266,10.803-58.075,28.898
		c-8.857,13.571-11.635,30.27-7.82,47.021c4.781,20.999,19.305,40.183,39.848,52.632c14.851,8.999,31.474,13.755,48.073,13.756
		c0.001,0,0.001,0,0.003,0c24.553,0,46.263-10.803,58.072-28.898c8.857-13.572,11.635-30.272,7.82-47.024
		C417.349,205.99,402.825,186.809,382.283,174.36z M397.561,263.084c-8.225,12.603-23.288,19.83-41.327,19.829
		c-12.944,0-25.983-3.756-37.708-10.86c-15.934-9.655-27.128-24.223-30.713-39.968c-2.638-11.584-0.885-22.529,5.068-31.65
		c8.225-12.602,23.287-19.83,41.327-19.83c12.943,0,25.983,3.756,37.709,10.861c15.933,9.654,27.127,24.221,30.712,39.965
		C405.268,243.016,403.515,253.96,397.561,263.084z"/>
	<path d="M347.252,211.758c-11.016,0-20,8.984-20,20s8.984,19.999,20,19.999s20-8.983,20-19.999
		C367.252,220.743,358.268,211.758,347.252,211.758z"/>
</g>
<g>
</g>
<g>
</g>
<g>
</g>
<g>
</g>
<g>
</g>
<g>
</g>
<g>
</g>
<g>
</g>
<g>
</g>
<g>
</g>
<g>
</g>
<g>
</g>
<g>
</g>
<g>
</g>
<g>
</g>
</svg>
