<?xml version="1.0" encoding="iso-8859-1"?>
<!-- Generator: Adobe Illustrator 19.0.0, SVG Export Plug-In . SVG Version: 6.00 Build 0)  -->
<svg version="1.1" id="Capa_1" xmlns="http://www.w3.org/2000/svg" xmlns:xlink="http://www.w3.org/1999/xlink" x="0px" y="0px"
	 viewBox="0 0 512 512" style="enable-background:new 0 0 512 512;" xml:space="preserve">
<g>
	<path style="fill:#FFBA4C;" d="M457.718,155.646l-120.561-2.025l-82.227-1.383c-33.583-0.564,7.131,44.055,52.175,90.86
		c25.853,26.862,52.846,54.176,70.847,73.477c60.387-4.773,83.419-25.979,116.42-98.168c2.835-6.199,4.791-11.789,6.013-16.825
		C511.926,153.966,457.718,155.646,457.718,155.646z"/>
	<path style="fill:#A7A7A7;" d="M233.119,266.575H10.014c-0.648,0,3.72,43.348,27.159,87.601
		C161.889,387.595,278.444,327.788,233.119,266.575z"/>
	<path style="fill:#F0F0F0;" d="M307.105,243.098c-45.044-46.805-85.758-91.425-52.175-90.86l82.227,1.383l-15.992-33.423
		c-72.123-139.185-203.013-22.173-144.67,64.492c29.82,44.293,56.624,81.886,56.624,81.886
		c45.325,61.213-71.229,121.019-195.946,87.601c11.076,20.913,26.41,42.027,47.484,58.869c48.061,10.065,47.887-22.96,119.293-5.107
		c75.091,18.772,51.041-9.283,127.501,2.746c49.682,7.818,65.976-6.086,82.589-4.947c3.697-17.347,0.411-39.644-16.184-65.92
		c-2.742-4.342-9.948-12.566-19.904-23.241C359.95,297.274,332.957,269.96,307.105,243.098z"/>
	<path style="fill:#00E7E2;" d="M331.451,410.684c-76.46-12.029-52.41,16.026-127.501-2.746
		c-71.405-17.853-71.231,15.171-119.292,5.103c-2.479-0.516-5.087-1.148-7.839-1.91c-56.108-15.52-66.807,44.947-66.807,44.947
		l461.805,0.121c-30.983-39.011-44.483-49.553-57.779-50.463C397.427,404.598,381.133,418.502,331.451,410.684z"/>
</g>
<path d="M503.466,222.565c3.013-6.59,5.227-12.825,6.645-18.696c0.029-0.122,0.06-0.243,0.084-0.367
	c3.479-14.708,1.934-27.115-4.653-37.027c-13.82-20.797-44.337-20.888-47.848-20.829l-114.186-1.918l-13.324-27.845
	c-0.046-0.096-0.093-0.19-0.142-0.284c-31.286-60.376-70.459-69.643-91.026-69.795c-0.188-0.002-0.374-0.003-0.562-0.003
	c-30.519,0-59.294,18.331-75.2,47.951c-16.681,31.063-14.832,67.146,4.945,96.523c17.974,26.698,34.987,51.152,45.619,66.302H10.014
	c-4.248,0-8.06,2.718-9.465,6.727c-0.526,1.501-1.505,4.296,1.855,21.64c1.744,9.001,5.046,23.164,10.874,39.531
	c3.599,10.107,8.409,21.672,14.718,33.658c0.202,0.468,0.441,0.917,0.711,1.348c6.985,13.068,15.773,26.585,26.75,39.231
	c-18.656,1.193-34.04,10.959-44.663,28.425c-8.105,13.325-10.528,26.642-10.627,27.201c-0.516,2.912,0.284,5.901,2.184,8.168
	c1.899,2.266,4.704,3.574,7.661,3.575l461.805,0.121c0.001,0,0.001,0,0.003,0c0.007,0,0.014,0,0.02,0c5.523,0,10-4.478,10-10
	c0-2.554-0.957-4.884-2.533-6.651c-24.995-31.435-40.089-46.228-54.115-51.5c1.108-15.55-2.242-37.227-18.88-63.571
	c-1.598-2.53-4.289-5.963-8.007-10.289c23.163-3.902,40.114-11.395,54.63-23.82C470.396,285.421,485.036,262.879,503.466,222.565z
	 M227.779,276.575c7.249,12.012,7.047,23.821-0.671,35.16c-16.489,24.226-62.454,41.998-117.83,41.995
	c-20.771-0.001-42.877-2.505-65.236-8.105c-4.433-8.756-7.974-17.154-10.754-24.644c-0.328-0.884-0.642-1.757-0.955-2.629h23.654
	c5.523,0,10-4.478,10-10s-4.477-10-10-10H26.037c-2.388-8.809-3.918-16.296-4.847-21.778L227.779,276.575L227.779,276.575z
	 M450.706,446.194l-427.217-0.111c4.778-11.581,15.124-27.5,35.898-27.5c4.557,0,9.525,0.735,14.768,2.186
	c2.876,0.796,5.653,1.465,8.359,2.033c0.182,0.04,0.363,0.081,0.545,0.11c6.76,1.388,13.036,2.084,18.984,2.084
	c12.919,0,22.407-3.182,31.583-6.26c9.5-3.186,18.473-6.195,32.281-6.195c10.249,0,21.899,1.668,35.619,5.098
	c19.034,4.759,33.36,6.976,45.083,6.976c10.6,0,17.824-1.789,24.811-3.519c7.321-1.813,14.235-3.524,26.155-3.524
	c8.961,0,19.533,0.979,32.323,2.99c10.622,1.672,20.719,2.519,30.014,2.519c17.3,0,29.025-2.797,38.447-5.044
	c5.543-1.323,9.922-2.367,13.7-2.367C419.957,415.669,429.366,421.1,450.706,446.194z M405.263,396.184
	c-3.722,0.533-7.461,1.425-11.546,2.399c-8.84,2.108-18.858,4.499-33.807,4.499c-8.257,0-17.309-0.766-26.906-2.275
	c-13.828-2.176-25.418-3.233-35.431-3.233c-14.358,0-23.179,2.184-30.961,4.109c-6.356,1.574-11.845,2.933-20.005,2.933
	c-10.044,0-22.828-2.026-40.233-6.378c-15.326-3.832-28.564-5.694-40.469-5.694c-17.071,0-28.53,3.843-38.64,7.232
	c-8.354,2.803-15.569,5.223-25.224,5.223c-4.032,0-8.334-0.428-12.991-1.284c-12.569-10.385-22.857-22.405-31.223-34.665
	c17.202,3.127,34.6,4.7,51.671,4.699c18.072,0,35.781-1.764,52.492-5.313c37.676-8.002,67.436-24.566,81.648-45.447
	c13.46-19.775,12.614-41.859-2.373-62.207c-0.002-0.003-0.004-0.007-0.007-0.011c-0.267-0.375-27.074-38.001-56.471-81.665
	c-15.56-23.111-17.023-51.482-3.916-75.892c12.226-22.767,34.801-37.415,57.604-37.415c0.13,0,0.262,0.001,0.392,0.002
	c27.701,0.204,53.744,21.104,73.344,58.859l8.944,18.69l-66.061-1.11c-13.525-0.261-18.926,5.682-21.102,10.68
	c-7.392,16.974,13.376,42.529,65.904,97.112c9.531,9.902,19.19,19.84,28.532,29.451c27.36,28.147,55.651,57.253,60.97,65.674
	C400.872,363.318,406.263,380.784,405.263,396.184z M381.917,306.19c-10.24-10.874-23.356-24.402-39.145-40.646
	c-9.325-9.594-18.967-19.514-28.463-29.381c-16.099-16.729-32.631-34.206-44.475-48.682c-11.919-14.567-15.619-21.92-16.76-25.215
	c0.474-0.026,1.034-0.036,1.688-0.03l82.226,1.382l0,0l120.562,2.025c0.16,0.002,0.318,0.001,0.478-0.003
	c5.828-0.195,24.023,1.617,30.857,11.902c2.614,3.935,3.371,8.839,3.001,14.039h-57.451c-5.523,0-10,4.478-10,10
	c0,5.523,4.477,10,10,10h52.019c-0.387,0.91-0.78,1.803-1.176,2.669C453.895,282.897,433.93,301.164,381.917,306.19z"/>
<path d="M247.303,111.257c0-8.262-6.738-14.999-14.999-14.999s-14.999,6.738-14.999,14.999s6.738,14.999,14.999,14.999
	C240.565,126.257,247.303,119.519,247.303,111.257z"/>
<path d="M85.71,318.353h0.324c5.523,0,10-4.478,10-10s-4.477-10-10-10H85.71c-5.523,0-10,4.478-10,10S80.187,318.353,85.71,318.353z
	"/>
<path d="M404.711,191.582h-0.324c-5.523,0-10,4.478-10,10c0,5.523,4.477,10,10,10h0.324c5.523,0,10-4.477,10-10
	C414.711,196.06,410.234,191.582,404.711,191.582z"/>
<g>
</g>
<g>
</g>
<g>
</g>
<g>
</g>
<g>
</g>
<g>
</g>
<g>
</g>
<g>
</g>
<g>
</g>
<g>
</g>
<g>
</g>
<g>
</g>
<g>
</g>
<g>
</g>
<g>
</g>
</svg>
