<?xml version="1.0" encoding="iso-8859-1"?>
<!-- Generator: Adobe Illustrator 19.0.0, SVG Export Plug-In . SVG Version: 6.00 Build 0)  -->
<svg version="1.1" id="Capa_1" xmlns="http://www.w3.org/2000/svg" xmlns:xlink="http://www.w3.org/1999/xlink" x="0px" y="0px"
	 viewBox="0 0 512.001 512.001" style="enable-background:new 0 0 512.001 512.001;" xml:space="preserve">
<g>
	<path style="fill:#838383;" d="M255.953,213.187L255.953,213.187L255.953,213.187z M256.065,213.187L256.065,213.187
		L256.065,213.187z M256.009,56.001c-71.421-0.393-142.434,21.256-178.616,64.88c-9.309,11.376-17.842,23.296-25.479,35.578
		c12.468,49.039,116.095,1.979,166.325,79.685c11.369-13.344,24.228-22.931,37.713-22.962l0.057,0.002l0.056,0.002
		c13.487,0.027,26.345,9.614,37.713,22.958c50.23-77.706,153.856-30.646,166.326-79.685c-7.637-12.282-16.171-24.202-25.48-35.578
		C398.443,77.257,327.43,55.608,256.009,56.001z"/>
	<path style="fill:#FF8346;" d="M255.953,213.183c-13.486,0.031-26.344,9.618-37.713,22.962
		c-26.098,30.63-44.35,81.056-44.35,81.056s5.292-0.082,12.947,0.248c2.698,0.117,5.69,0.283,8.847,0.523
		c16.255,1.233,36.897,4.391,44.44,12.409c6.284,6.683,11.136,9.204,15.886,9.132c4.75,0.072,9.601-2.449,15.886-9.132
		c7.855-8.351,29.91-11.429,46.428-12.554c11.169-0.76,19.806-0.627,19.806-0.627s-18.252-50.426-44.351-81.056
		c-11.368-13.344-24.227-22.931-37.713-22.962l-0.056,0.002L255.953,213.183z"/>
	<path style="fill:#FFBA4C;" d="M271.895,330.381c-6.285,6.683-11.136,9.204-15.886,9.132c-4.75,0.072-9.602-2.449-15.886-9.132
		c-7.543-8.018-28.185-11.177-44.44-12.409c-4.842,79.966,125.91,88.172,122.639-0.145
		C301.806,318.952,279.75,322.031,271.895,330.381z"/>
	<path style="fill:#F0F0F0;" d="M218.24,236.145c-50.23-77.706-153.856-30.646-166.325-79.685
		C-28.796,286.284-9.212,456.672,256.009,456.001c265.221,0.67,284.805-169.716,204.094-299.542
		c-12.469,49.039-116.096,1.979-166.326,79.685c26.099,30.63,44.351,81.056,44.351,81.056s-8.637-0.133-19.806,0.627
		c3.27,88.317-127.48,80.111-122.639,0.145c-3.156-0.24-6.148-0.406-8.847-0.523c-7.656-0.33-12.947-0.248-12.947-0.248
		S192.142,266.775,218.24,236.145z"/>
</g>
<path d="M505.277,236.098c-10.411-41.941-32.167-83.971-62.954-121.602c-18.194-21.936-45.735-39.818-79.647-51.709
	c-31.329-10.985-67.552-16.791-104.754-16.791c-0.636,0-1.275,0-1.912,0.004c-0.641-0.004-1.271-0.004-1.913-0.004
	c-37.199,0-73.422,5.808-104.753,16.793c-33.913,11.892-61.454,29.773-79.69,51.76c-30.75,37.584-52.51,79.62-62.926,121.565
	c-11.243,45.28-8.352,87.86,8.364,123.133c23.083,48.705,83.345,106.764,239.361,106.758l1.531-0.002l1.583,0.002
	c156.001-0.008,216.26-58.075,239.342-106.785C513.623,323.948,516.517,281.372,505.277,236.098z M85.092,127.264
	c31.345-37.791,96.103-61.269,169.004-61.269c0.623,0,1.235,0.002,1.858,0.006c0.035,0,0.074,0,0.109,0
	c0.618-0.004,1.24-0.006,1.857-0.006c72.902,0,137.661,23.478,168.962,61.218c8.132,9.939,15.532,20.119,22.194,30.446
	c-5.536,11.374-21.94,13.777-48.809,16.773c-32.938,3.672-77.101,8.597-107.522,46.109c-12.113-11.454-24.31-17.277-36.488-17.356
	c-0.218-0.006-0.434-0.008-0.651,0c-12.128,0.127-24.274,5.95-36.337,17.356c-30.421-37.512-74.584-42.437-107.522-46.109
	c-26.875-2.996-43.279-5.401-48.813-16.779C69.589,147.347,76.977,137.183,85.092,127.264z M264.61,323.531
	c-3.629,3.857-6.612,5.983-8.4,5.983l-0.046-0.002c-0.046,0-0.101,0-0.156,0c-0.07,0-0.142,0-0.198,0.002
	c-1.788,0-4.772-2.125-8.4-5.985c-8.651-9.198-28.455-14.584-58.872-16.016c4.112-9.685,10.46-23.53,18.385-37.299
	c6.384-11.089,12.763-20.35,18.984-27.646c0.009-0.012,0.018-0.021,0.027-0.033c10.763-12.614,21.049-19.33,30.038-19.348
	c0.026,0,0.049,0,0.073,0c8.99,0.02,19.28,6.739,30.048,19.361c0.001,0.002,0.003,0.004,0.005,0.004
	c6.186,7.253,12.527,16.443,18.874,27.446c7.953,13.789,14.345,27.722,18.485,37.467
	C302.452,308.379,275.524,311.926,264.61,323.531z M307.953,328.84c-2.211,19.525-12.689,29.827-21.824,35.158
	c-16.937,9.88-40.967,9.274-58.437-1.473c-12.404-7.632-19.886-19.293-21.697-33.465c15.772,2.059,24.243,5.405,26.844,8.173
	c4.959,5.272,12.733,12.28,22.972,12.28h0.2h0.2c10.235,0,18.012-7.009,22.971-12.28
	C282.557,333.642,293.517,330.606,307.953,328.84z M478.834,350.654c-29.554,62.372-106.068,95.343-221.267,95.349L255.984,446
	l-1.532,0.002c-115.211,0.004-191.73-32.959-221.285-95.324C10.239,302.296,17.96,237.723,51.811,176.272
	c4.381,4.43,10.067,7.931,17.138,10.548c11.477,4.246,25.615,5.823,40.584,7.491c33.381,3.723,70.971,7.937,96.205,41.417
	c-5.412,7.04-10.799,15.209-16.151,24.509c-15.223,26.448-24.704,52.465-25.101,53.559c-1.118,3.09-0.645,6.532,1.261,9.208
	c1.907,2.676,5.008,4.229,8.294,4.195c0.041,0,0.561-0.008,1.473-0.008c1.83,0,5.539,0.031,10.232,0.221
	c1.535,21.924,12.666,40.583,31.466,52.151c12.432,7.649,27.005,11.497,41.428,11.497c13.246-0.002,26.367-3.25,37.569-9.786
	c19.18-11.189,30.307-30.124,31.957-53.946c2.738-0.088,5.521-0.137,8.333-0.137c0.918,0,1.44,0.008,1.478,0.008
	c0.052,0,0.104,0.002,0.154,0.002c3.229,0,6.265-1.561,8.143-4.195c1.908-2.676,2.38-6.12,1.262-9.21
	c-0.397-1.094-9.878-27.11-25.101-53.559c-5.353-9.3-10.74-17.469-16.152-24.509c25.233-33.481,62.824-37.693,96.205-41.417
	c14.969-1.668,29.107-3.244,40.585-7.491c7.067-2.615,12.75-6.116,17.132-10.542C494.046,237.731,501.755,302.281,478.834,350.654z"
	/>
<path d="M151.692,120.064c1.294,0,2.609-0.252,3.877-0.787c28.549-12.021,59.664-16.209,80.738-17.607
	c5.512-0.365,9.684-5.128,9.317-10.64c-0.363-5.511-5.12-9.696-10.64-9.317c-22.603,1.498-56.073,6.034-87.179,19.131
	c-5.091,2.143-7.48,8.009-5.336,13.099C144.08,117.765,147.788,120.064,151.692,120.064z"/>
<path d="M126.666,133.33c1.915,0,3.851-0.545,5.561-1.684l0.21-0.141c4.555-3.125,5.724-9.358,2.598-13.914
	c-3.124-4.554-9.337-5.722-13.895-2.594c-0.014,0.01-0.085,0.057-0.099,0.066c-4.574,3.078-5.765,9.259-2.697,13.842
	C120.269,131.781,123.438,133.33,126.666,133.33z"/>
<path d="M149.736,240.998c-8.263,0-15.002,6.739-15.002,15.002c0,8.263,6.739,15.002,15.002,15.002s15.002-6.739,15.002-15.002
	C164.738,247.737,157.998,240.998,149.736,240.998z"/>
<path d="M377.285,256c0-8.263-6.739-15.002-15.002-15.002s-15.002,6.739-15.002,15.002c0,8.263,6.739,15.002,15.002,15.002
	S377.285,264.263,377.285,256z"/>
<path d="M140.133,294.44c-15.1-9.935-35.282-12.802-56.829-8.075c-5.035,1.105-8.405,5.854-7.786,10.972l0.836,6.896
	c-8.89,1.84-17.182,4.921-26.346,9.694c-4.899,2.551-6.802,8.591-4.25,13.49c1.783,3.422,5.269,5.384,8.879,5.384
	c1.556,0,3.135-0.365,4.611-1.133c10.282-5.356,18.753-7.987,29.238-9.085c2.666-0.277,5.109-1.615,6.78-3.711
	c1.671-2.096,2.431-4.776,2.108-7.439l-0.842-6.94c12.605-1.203,24.169,1.105,32.607,6.657c4.614,3.035,10.815,1.754,13.852-2.857
	C146.028,303.677,144.748,297.475,140.133,294.44z"/>
<path d="M435.666,304.232l0.836-6.896c0.62-5.116-2.751-9.866-7.786-10.972c-21.552-4.728-41.734-1.857-56.829,8.075
	c-4.615,3.035-5.895,9.237-2.857,13.852c3.035,4.614,9.236,5.896,13.852,2.857c8.44-5.554,19.997-7.858,32.607-6.657l-0.841,6.94
	c-0.323,2.662,0.437,5.341,2.107,7.439c1.671,2.096,4.113,3.434,6.78,3.711c10.485,1.098,18.956,3.729,29.239,9.085
	c1.476,0.768,3.055,1.133,4.611,1.133c3.609,0,7.097-1.961,8.879-5.384c2.551-4.899,0.648-10.939-4.25-13.49
	C452.847,309.153,444.555,306.072,435.666,304.232z"/>
<g>
</g>
<g>
</g>
<g>
</g>
<g>
</g>
<g>
</g>
<g>
</g>
<g>
</g>
<g>
</g>
<g>
</g>
<g>
</g>
<g>
</g>
<g>
</g>
<g>
</g>
<g>
</g>
<g>
</g>
</svg>
