<?xml version="1.0" encoding="iso-8859-1"?>
<!-- Generator: Adobe Illustrator 19.0.0, SVG Export Plug-In . SVG Version: 6.00 Build 0)  -->
<svg version="1.1" id="Capa_1" xmlns="http://www.w3.org/2000/svg" xmlns:xlink="http://www.w3.org/1999/xlink" x="0px" y="0px"
	 viewBox="0 0 512.001 512.001" style="enable-background:new 0 0 512.001 512.001;" xml:space="preserve">
<g>
	<path style="fill:#FF8346;" d="M495.977,221.018c-1.205,81.532-39.926,155.27-97.15,187.934
		c-5.122,65.911-74.319,96.287-142.827,92.775c-68.508,3.511-137.705-26.865-142.827-92.775
		c-57.224-32.663-95.945-106.401-97.149-187.934C14.055,87.572,135.029,25.038,256,26.283
		C376.971,25.038,497.945,87.572,495.977,221.018z"/>
	<g>
		<path style="fill:#FFBA4C;" d="M157.004,40.42c-13.955-18.944-37.605-31.075-64.26-30.392
			c-42.195,1.081-75.932,33.854-75.352,73.203c0.271,18.324,7.938,34.841,20.314,47.153C62.454,86.204,106.131,56.443,157.004,40.42
			z"/>
		<path style="fill:#FFBA4C;" d="M154.396,288.925C253.242,208.12,139.945,68.14,23.697,163.429
			c-5.266,17.47-7.982,36.658-7.674,57.59c0.104,6.941,0.478,13.825,1.111,20.633c1.769,18.964,5.555,37.331,11.107,54.656
			c23.022-13.292,45.439-16.095,68.16-16.095c-14.979,16.368-34.33,43.621-34.185,82.817c14.381,19.144,31.611,34.88,50.956,45.922
			C111.956,397.732,107.494,327.265,154.396,288.925z"/>
	</g>
	<g>
		<path style="fill:#FF8346;" d="M96.402,280.213c-22.721,0-45.138,2.803-68.16,16.095c7.952,24.812,19.525,47.488,33.975,66.723
			C62.072,323.833,81.423,296.581,96.402,280.213z"/>
		<path style="fill:#FF8346;" d="M483.758,296.307c-23.022-13.292-45.439-16.095-68.16-16.095
			c14.979,16.368,34.33,43.621,34.186,82.817C464.232,343.795,475.806,321.119,483.758,296.307z"/>
	</g>
	<path style="fill:#FFBA4C;" d="M495.977,221.018c0.309-20.932-2.408-40.12-7.674-57.59
		c-116.248-95.288-229.545,44.692-130.7,125.497c46.902,38.341,42.44,108.808,41.224,120.027
		c19.345-11.042,36.575-26.778,50.956-45.922c0.145-39.197-19.206-66.449-34.186-82.817c22.721,0,45.138,2.803,68.16,16.095
		C491.303,272.764,495.588,247.296,495.977,221.018z"/>
	<path style="fill:#FF8346;" d="M361.163,474.883L256,437.945l-105.163,36.938c27.47,19.982,66.427,28.83,105.163,26.845
		C294.736,503.713,333.693,494.864,361.163,474.883z"/>
	<g>
		<path style="fill:#FFBA4C;" d="M494.607,83.231c0.58-39.349-33.156-72.123-75.352-73.203
			c-26.654-0.683-50.305,11.448-64.26,30.392c50.872,16.023,94.55,45.784,119.297,89.963
			C486.669,118.072,494.336,101.555,494.607,83.231z"/>
		<path style="fill:#FFBA4C;" d="M198.92,111.7c-16.283-38.321-29.814-58.503-41.911-71.274c-0.002-0.002-0.003-0.004-0.005-0.006
			c-31.733,9.995-60.667,25.336-83.953,46.187C107.301,80.106,158.92,86.7,198.92,111.7z"/>
		<path style="fill:#FFBA4C;" d="M438.949,86.606c-23.285-20.851-52.22-36.192-83.953-46.187c-0.002,0.002-0.004,0.004-0.006,0.006
			c-12.096,12.771-25.628,32.953-41.91,71.274C353.08,86.7,404.699,80.106,438.949,86.606z"/>
	</g>
</g>
<path d="M505.975,221.166c0.314-21.235-2.382-41.42-7.999-60.23c-0.063-0.245-0.135-0.486-0.216-0.726
	c-1.499-4.942-3.188-9.793-5.092-14.537c-1.879-4.682-3.968-9.262-6.24-13.748c11.51-13.778,17.915-30.757,18.178-48.547
	c0.659-44.739-37.514-82.129-85.095-83.347c-26.462-0.676-51.374,10-68.023,28.842c-28.438-8.248-59.501-12.608-91.948-12.608
	c-1.174,0-2.366,0.006-3.54,0.018c-1.181-0.012-2.359-0.018-3.541-0.018c-32.446,0-63.509,4.36-91.947,12.608
	C143.867,10.031,118.969-0.655,92.488,0.031C44.907,1.249,6.734,38.639,7.394,83.379c0.264,17.792,6.669,34.771,18.18,48.549
	c-2.272,4.486-4.361,9.067-6.241,13.75c-1.9,4.735-3.588,9.577-5.084,14.509c-0.087,0.255-0.164,0.513-0.23,0.774
	c-5.613,18.803-8.307,38.98-7.993,60.206c1.219,82.539,39.402,157.932,97.717,193.818c3.526,27.592,17.676,50.893,41.25,68.008
	c0.056,0.04,0.111,0.082,0.169,0.122c2.016,1.458,4.092,2.877,6.245,4.244c25.031,15.893,58.401,24.644,93.963,24.642
	c3.527,0,7.1-0.087,10.63-0.26c3.534,0.173,7.108,0.26,10.631,0.26c35.561-0.001,68.93-8.753,93.961-24.645
	c2.136-1.356,4.196-2.763,6.198-4.209c0.117-0.08,0.23-0.165,0.344-0.249c23.499-17.106,37.605-40.372,41.124-67.913
	c53.234-32.759,89.686-98.445,96.561-172.433c0.006-0.061,0.013-0.121,0.017-0.183C505.482,235.368,505.87,228.294,505.975,221.166z
	 M419,20.024c36.675,0.939,66.107,29.228,65.608,63.059c-0.159,10.73-3.371,21.081-9.192,30.105
	c-6.152-9.115-13.19-17.721-21.1-25.749c-21.649-21.971-49.547-39.375-81.58-51.481C385.12,25.384,401.592,19.568,419,20.024z
	 M405.954,74.394c-22.417,0.721-47.707,5.384-71.735,15.296c8.009-15.873,15.845-28.225,23.917-37.774
	C375.444,57.844,391.504,65.377,405.954,74.394z M153.864,51.918c8.072,9.548,15.907,21.899,23.916,37.771
	c-24.026-9.911-49.311-14.575-71.726-15.296C120.502,65.378,136.56,57.846,153.864,51.918z M27.392,83.083
	C26.893,49.252,56.325,20.964,93,20.024c17.397-0.455,33.876,5.361,46.264,15.937c-27.728,10.48-52.354,24.93-72.513,42.879
	c-0.038,0.031-0.073,0.064-0.11,0.096c-3.091,2.756-6.081,5.591-8.956,8.509c-7.91,8.027-14.947,16.633-21.099,25.747
	C30.764,104.166,27.55,93.815,27.392,83.083z M40.38,301.213c11.83-5.668,23.441-8.485,34.39-9.833
	c-9.322,13.668-15.768,28.076-19.313,43.124C49.63,324.07,44.577,312.92,40.38,301.213z M72.255,359.856
	c0.659-26.576,10.988-50.452,31.524-72.892c2.676-2.924,3.373-7.153,1.775-10.781s-5.188-5.97-9.152-5.97
	c-18.257,0-39.514,1.538-62.019,11.718c-3.148-11.851-5.453-24.141-6.841-36.724c5.913-5.881,20.692-18.97,39.978-24.528
	c5.307-1.529,8.369-7.071,6.84-12.378c-1.529-5.306-7.072-8.369-12.378-6.84c-14.646,4.221-26.954,11.735-35.963,18.603
	c-0.197-18.012,1.931-34.955,6.352-50.77c33.339-26.392,68.714-34.463,99.887-22.694c25.896,9.777,44.671,32.283,48.998,58.735
	c4.533,27.709-7.253,54.646-33.189,75.847c-38.276,31.29-45.074,80.803-45.582,108.718C91.393,381.481,81.26,371.357,72.255,359.856
	z M256.512,491.741c-0.17-0.009-0.341-0.013-0.512-0.013c-0.171,0-0.341,0.004-0.512,0.013c-3.357,0.172-6.762,0.259-10.12,0.26
	c-24.716,0.001-49.896-4.776-70.949-14.802L256,448.544l81.576,28.653C316.524,487.222,291.346,492,266.631,492
	C263.277,492,259.872,491.913,256.512,491.741z M359.327,463.639L266,430.858v-103.18c14.805-2.117,28.475-8.917,39.239-19.681
	c3.905-3.905,3.905-10.237,0-14.142s-10.237-3.905-14.142,0c-9.375,9.375-21.839,14.538-35.097,14.538
	c-13.258,0-25.722-5.163-35.097-14.538c-3.905-3.906-10.237-3.904-14.142,0c-3.905,3.905-3.905,10.237-0.001,14.142
	c10.765,10.765,24.434,17.564,39.239,19.681v103.18l-93.33,32.781c-16.508-13.401-27.685-31.748-29.528-55.462
	c-0.003-0.043-0.014-0.084-0.018-0.127c-0.005-0.055-0.004-0.11-0.01-0.165c-0.328-3.018-7.512-74.332,37.61-111.218
	c31.244-25.541,45.921-60.007,40.268-94.561c-5.478-33.485-29.109-61.923-61.672-74.217c-17.993-6.792-38.017-8.268-57.907-4.264
	c-12.088,2.434-24.061,6.815-35.818,13.072c0.115-0.21,0.236-0.418,0.352-0.628c0.353-0.511,0.65-1.047,0.897-1.601
	c6.743-11.846,15.103-22.857,25.085-32.987c1.858-1.885,3.785-3.721,5.745-5.533c30.064-4.855,78.101,0.579,115.945,24.231
	c1.63,1.019,3.468,1.52,5.298,1.52c2.326,0,4.64-0.81,6.497-2.397c3.319-2.835,4.415-7.496,2.708-11.514
	c-11.342-26.693-22.235-46.834-33.621-62.032c22.386-5.729,46.44-8.955,71.498-9.428v55.906c0,5.523,4.477,10,10,10s10-4.477,10-10
	V36.33c25.058,0.473,49.112,3.698,71.498,9.426c-11.387,15.199-22.28,35.341-33.622,62.033c-1.707,4.018-0.611,8.678,2.709,11.514
	c1.857,1.587,4.171,2.397,6.497,2.397c1.83,0,3.668-0.501,5.298-1.52c37.847-23.655,85.891-29.086,115.953-24.23
	c1.958,1.81,3.882,3.644,5.738,5.527c9.975,10.123,18.331,21.125,25.071,32.962c0.253,0.571,0.559,1.123,0.924,1.648
	c0.113,0.205,0.231,0.407,0.343,0.612c-11.759-6.258-23.733-10.64-35.823-13.074c-19.89-4.004-39.914-2.53-57.907,4.264
	c-32.563,12.294-56.194,40.732-61.672,74.217c-5.653,34.553,9.025,69.02,40.268,94.561c45.123,36.886,37.938,108.2,37.61,111.218
	c-0.006,0.056-0.004,0.11-0.01,0.165c-0.004,0.043-0.014,0.084-0.018,0.127C387.014,431.891,375.836,450.237,359.327,463.639z
	 M409.514,389.901c-0.508-27.915-7.305-77.429-45.582-108.718c-25.935-21.202-37.722-48.138-33.189-75.847
	c4.327-26.453,23.102-48.958,48.998-58.735c31.175-11.768,66.549-3.698,99.888,22.695c4.421,15.814,6.547,32.757,6.351,50.769
	c-9.009-6.867-21.316-14.382-35.963-18.603c-5.309-1.53-10.849,1.533-12.378,6.84s1.533,10.849,6.84,12.378
	c19.284,5.557,34.063,18.645,39.977,24.527c-1.388,12.584-3.694,24.873-6.841,36.725c-22.505-10.18-43.762-11.718-62.019-11.718
	c-3.964,0-7.554,2.342-9.152,5.97c-1.598,3.628-0.901,7.857,1.775,10.781c20.536,22.44,30.866,46.316,31.524,72.892
	C430.74,371.357,420.607,381.48,409.514,389.901z M471.619,301.212c-4.197,11.707-9.25,22.857-15.076,33.29
	c-3.545-15.048-9.991-29.456-19.313-43.123C448.178,292.727,459.789,295.545,471.619,301.212z"/>
<path d="M339.096,335.276l-35.411,8.808c-5.359,1.333-8.624,6.758-7.291,12.118c1.131,4.549,5.211,7.589,9.696,7.589
	c0.799,0,1.611-0.097,2.421-0.298l35.411-8.808c5.359-1.333,8.624-6.758,7.291-12.118
	C349.881,337.207,344.452,333.943,339.096,335.276z"/>
<path d="M343.284,393.141l-35.444-8.895c-5.359-1.345-10.789,1.909-12.133,7.265c-1.344,5.357,1.909,10.789,7.265,12.133
	l35.444,8.895c0.817,0.205,1.636,0.303,2.441,0.303c4.477,0,8.553-3.029,9.692-7.568
	C351.893,399.918,348.64,394.486,343.284,393.141z"/>
<path d="M372.06,197.944c-11.016,0-20,8.985-20,20c0,11.016,8.984,20,20,20s20-8.984,20-20
	C392.06,206.929,383.076,197.944,372.06,197.944z"/>
<path d="M160.786,342.567c-1.333,5.359,1.931,10.785,7.291,12.118l35.411,8.808c0.811,0.202,1.622,0.298,2.421,0.298
	c4.485,0,8.565-3.04,9.696-7.589c1.333-5.359-1.931-10.785-7.291-12.118l-35.411-8.808
	C167.545,333.943,162.119,337.207,160.786,342.567z"/>
<path d="M204.161,384.247l-35.444,8.895c-5.356,1.344-8.609,6.776-7.265,12.133c1.139,4.54,5.214,7.568,9.692,7.568
	c0.805,0,1.625-0.098,2.441-0.303l35.444-8.895c5.356-1.344,8.609-6.776,7.265-12.133
	C214.95,386.156,209.52,382.901,204.161,384.247z"/>
<path d="M139.94,237.944c11.016,0,20-8.984,20-20s-8.984-20-20-20c-11.017,0-20.001,8.985-20.001,20
	C119.939,228.96,128.924,237.944,139.94,237.944z"/>
<path d="M256,111.959c-5.523,0-10,4.477-10,10v0.325c0,5.523,4.477,10,10,10c5.523,0,10-4.477,10-10v-0.325
	C266,116.436,261.523,111.959,256,111.959z"/>
<g>
</g>
<g>
</g>
<g>
</g>
<g>
</g>
<g>
</g>
<g>
</g>
<g>
</g>
<g>
</g>
<g>
</g>
<g>
</g>
<g>
</g>
<g>
</g>
<g>
</g>
<g>
</g>
<g>
</g>
</svg>
