<?xml version="1.0" encoding="iso-8859-1"?>
<!-- Generator: Adobe Illustrator 19.0.0, SVG Export Plug-In . SVG Version: 6.00 Build 0)  -->
<svg version="1.1" id="Capa_1" xmlns="http://www.w3.org/2000/svg" xmlns:xlink="http://www.w3.org/1999/xlink" x="0px" y="0px"
	 viewBox="0 0 512 512" style="enable-background:new 0 0 512 512;" xml:space="preserve">
<g>
	<path style="fill:#838383;" d="M75.793,244.96c34.891-16.975,85.297-29.556,129.651-33.233c-0.001-0.042-0.001-0.083-0.001-0.125
		c0-13.9,22.635-25.167,50.557-25.167c27.921,0,50.556,11.268,50.556,25.167c0,0.042,0,0.083-0.003,0.125
		c44.357,3.678,94.764,16.259,129.654,33.233c4.271-15.615,6.565-32.041,6.565-49.004C442.772,93.256,359.151,10,256,10
		C152.848,10,69.228,93.256,69.228,195.956C69.228,212.919,71.521,229.345,75.793,244.96z"/>
	<path style="fill:#E0AC91;" d="M205.444,211.727c0.132,13.677,21.895,39.186,49.025,40.118c0.509,0.018,1.019,0.026,1.53,0.026
		c0.512,0,1.021-0.009,1.529-0.026c27.131-0.933,48.894-26.441,49.023-40.118c0.003-0.042,0.003-0.083,0.003-0.125
		c0-13.9-22.635-25.167-50.556-25.167c-27.922,0-50.557,11.268-50.557,25.167L205.444,211.727z"/>
	<g>
		<path style="fill:#A7A7A7;" d="M256,251.871c-27.838,0-50.422-26.212-50.556-40.145c-44.354,3.678-94.761,16.259-129.651,33.233
			c-69.742,39.043-40.164,138.476,29.745,178.554c11.49,6.587,24.069,11.571,37.478,14.42c16.832,3.576,34.197,3.89,51.446-0.06
			c21.081-4.825,41.989-16.017,61.538-35.395V251.871z"/>
		<path style="fill:#A7A7A7;" d="M306.556,211.727c-0.135,13.933-22.718,40.145-50.556,40.145v150.607
			c19.548,19.379,40.456,30.57,61.537,35.395c17.25,3.949,34.615,3.636,51.447,0.06c13.407-2.849,25.986-7.833,37.477-14.42
			c69.91-40.078,99.487-139.511,29.746-178.554C401.316,227.985,350.909,215.404,306.556,211.727z"/>
	</g>
	<path style="fill:#838383;" d="M317.537,437.876c-21.081-4.827-41.989-16.019-61.537-35.397
		c-19.549,19.379-40.457,30.57-61.538,35.397l-18.355,32.43c46.51,24.588,113.276,24.588,159.786,0L317.537,437.876z"/>
	<g>
		<path style="fill:#F0F0F0;" d="M176.106,470.306l18.355-32.43c-17.249,3.947-34.614,3.634-51.446,0.058
			c-13.408-2.849-25.987-7.833-37.478-14.42c7.382,23.791,13.863,42.627,24.558,66.265c6.127,13.539,24.642,18.281,34.199,1.395
			L176.106,470.306z"/>
		<path style="fill:#F0F0F0;" d="M317.537,437.876l18.355,32.43l11.811,20.867c9.558,16.887,28.073,12.145,34.199-1.395
			c10.694-23.638,17.177-42.474,24.558-66.265c-11.49,6.587-24.069,11.571-37.477,14.42
			C352.152,441.51,334.787,441.823,317.537,437.876z"/>
	</g>
</g>
<path d="M328.866,149.698c11,0,19.972-8.984,19.972-20s-8.972-20-19.972-20c-10.999,0-19.971,8.984-19.971,20
	C308.896,140.714,317.867,149.698,328.866,149.698z"/>
<path d="M307.192,280.685c-5.787,0-10.507,4.7-10.507,10.462s4.72,10.461,10.507,10.461c5.786,0,10.507-4.699,10.507-10.461
	C317.699,285.385,312.979,280.685,307.192,280.685z"/>
<path d="M307.192,332.9c-5.787,0-10.507,4.699-10.507,10.461s4.72,10.461,10.507,10.461c5.786,0,10.507-4.699,10.507-10.461
	S312.979,332.9,307.192,332.9z"/>
<path d="M345.09,306.842c-5.787,0-10.507,4.699-10.507,10.461s4.72,10.461,10.507,10.461s10.507-4.699,10.507-10.461
	C355.597,311.541,350.877,306.842,345.09,306.842z"/>
<path d="M430.138,326.234c-5.444-0.943-10.62,2.697-11.565,8.139c-0.021,0.121-0.051,0.308-0.067,0.429
	c-0.746,5.473,3.085,10.514,8.557,11.26c0.459,0.063,0.914,0.093,1.364,0.093c4.853,0,9.092-3.536,9.865-8.441
	C439.184,332.304,435.55,327.176,430.138,326.234z"/>
<path d="M423.774,355.675c-4.762-2.803-10.89-1.211-13.689,3.549c-9.548,16.232-28.206,28.699-48.693,32.539
	c-5.429,1.017-9.004,6.242-7.987,11.67c0.901,4.807,5.1,8.16,9.817,8.16c0.611,0,1.231-0.057,1.853-0.173
	c26.397-4.947,49.667-20.669,62.248-42.056C430.123,364.604,428.534,358.475,423.774,355.675z"/>
<path d="M183.133,149.698c11,0,19.971-8.984,19.971-20s-8.971-20-19.971-20c-10.999,0-19.971,8.984-19.971,20
	C163.162,140.714,172.134,149.698,183.133,149.698z"/>
<path d="M447.703,240.275c3.365-14.492,5.068-29.365,5.068-44.319C452.772,87.905,364.5,0,256,0
	C147.499,0,59.228,87.905,59.228,195.956c0,14.954,1.703,29.828,5.068,44.319c-29.253,19.489-42.705,51.405-37.047,88.719
	c3.966,26.156,17.089,52.452,36.951,74.045c9.915,10.779,21.003,19.87,32.946,27.151c7.132,22.76,13.539,40.947,23.839,63.711
	c4.746,10.488,14.826,17.582,25.679,18.07c0.418,0.02,0.833,0.028,1.247,0.028c10.244,0,19.335-5.739,25.086-15.901l7.192-12.706
	c22.285,9.938,48.814,15.353,75.81,15.353c26.995,0,53.524-5.415,75.811-15.353l7.191,12.706
	C344.753,506.261,353.844,512,364.089,512c0.413,0,0.83-0.009,1.247-0.028c10.854-0.489,20.933-7.583,25.678-18.071
	c10.303-22.771,16.711-40.957,23.839-63.71c11.943-7.281,23.03-16.372,32.946-27.151c19.862-21.593,32.985-47.889,36.952-74.045
	C490.409,291.681,476.956,259.765,447.703,240.275z M256,20c97.473,0,176.772,78.934,176.772,175.956
	c0,11.745-1.17,23.434-3.484,34.883c-32.493-13.825-74.73-24.324-114.648-28.4c-6.6-15.317-29.616-26.004-58.639-26.004
	s-52.04,10.687-58.639,26.004c-39.918,4.076-82.156,14.575-114.648,28.4c-2.315-11.448-3.485-23.137-3.485-34.883
	C79.228,98.934,158.527,20,256,20z M256,241.871c-23.729,0-40.557-22.953-40.557-30.269c0-5.348,15.397-15.168,40.557-15.168
	c25.158,0,40.556,9.82,40.556,15.168C296.556,218.918,279.728,241.871,256,241.871z M47.023,325.996
	c-2.785-18.369-2.126-52.138,33.444-72.186c30.699-14.872,75.846-26.855,117.281-31.304c2.9,7.384,8.405,15.132,15.771,21.837
	c9.647,8.784,20.911,14.483,32.481,16.596v137.286c-22.938,21.566-48.816,32.502-76.982,32.502c-7.834,0-15.883-0.866-23.924-2.575
	c-12.317-2.617-23.692-7.112-34.014-12.957c-0.311-0.207-0.634-0.396-0.966-0.567C74.555,394.063,51.783,357.391,47.023,325.996z
	 M147.565,491.992c-3.353-0.15-6.711-2.697-8.358-6.336c-7.052-15.588-12.221-28.998-17.112-43.403
	c6.145,2.255,12.43,4.099,18.844,5.462c9.404,1.998,18.853,3.012,28.08,3.012c2.275,0,4.536-0.065,6.785-0.184l-20.211,35.704
	C154.055,488.964,151.424,492.18,147.565,491.992z M190.091,465.899l10.922-19.295c19.65-5.222,38.044-15.388,54.987-30.417
	c16.943,15.028,35.336,25.194,54.986,30.416l10.922,19.296C282.166,483.013,229.836,483.014,190.091,465.899z M372.793,485.656
	c-1.646,3.639-5.006,6.186-8.358,6.336c-3.83,0.185-6.489-3.028-8.028-5.745l-20.209-35.704c2.248,0.118,4.509,0.184,6.785,0.184
	c0.001,0,0.001,0,0.003,0c9.225,0,18.673-1.014,28.077-3.012c6.414-1.363,12.699-3.207,18.844-5.462
	C385.016,456.654,379.848,470.065,372.793,485.656z M464.977,325.995c-4.762,31.398-27.535,68.074-63.101,88.638
	c-0.327,0.168-0.644,0.354-0.95,0.558c-10.322,5.847-21.699,10.344-34.02,12.961c-8.042,1.709-16.09,2.575-23.922,2.575h-0.002
	c-28.167,0-54.046-10.937-76.982-32.502V260.939c11.57-2.112,22.834-7.812,32.48-16.596c7.365-6.705,12.869-14.453,15.77-21.837
	c41.438,4.448,86.584,16.432,117.283,31.304C467.104,273.858,467.762,307.627,464.977,325.995z"/>
<path d="M204.808,301.607c5.787,0,10.507-4.699,10.507-10.461s-4.72-10.462-10.507-10.462s-10.507,4.7-10.507,10.462
	S199.021,301.607,204.808,301.607z"/>
<path d="M204.808,353.822c5.787,0,10.507-4.699,10.507-10.461s-4.72-10.461-10.507-10.461s-10.507,4.699-10.507,10.461
	S199.021,353.822,204.808,353.822z"/>
<path d="M166.91,327.764c5.787,0,10.506-4.699,10.506-10.461s-4.719-10.461-10.506-10.461s-10.507,4.699-10.507,10.461
	S161.123,327.764,166.91,327.764z"/>
<path d="M84.938,346.061c5.472-0.746,9.303-5.787,8.557-11.26c-0.005-0.037-0.013-0.09-0.02-0.137
	c-0.775-5.408-5.764-9.2-11.191-8.494c-5.477,0.714-9.337,5.732-8.623,11.209c0.008,0.06,0.021,0.147,0.03,0.218
	c0.725,4.966,4.99,8.557,9.883,8.557C84.023,346.154,84.479,346.124,84.938,346.061z"/>
<path d="M146.924,411.42c0.622,0.116,1.242,0.173,1.854,0.173c4.718,0,8.916-3.354,9.817-8.16c1.017-5.428-2.559-10.653-7.987-11.67
	c-20.487-3.84-39.146-16.308-48.693-32.539c-2.8-4.76-8.931-6.35-13.689-3.549c-4.76,2.8-6.349,8.929-3.549,13.69
	C97.257,390.751,120.527,406.473,146.924,411.42z"/>
<g>
</g>
<g>
</g>
<g>
</g>
<g>
</g>
<g>
</g>
<g>
</g>
<g>
</g>
<g>
</g>
<g>
</g>
<g>
</g>
<g>
</g>
<g>
</g>
<g>
</g>
<g>
</g>
<g>
</g>
</svg>
